<?xml version="1.0" encoding="UTF-8"?>
<svg xmlns="http://www.w3.org/2000/svg" xmlns:xlink="http://www.w3.org/1999/xlink" width="100pt" height="100pt" viewBox="0 0 100 100" version="1.1">
<g id="surface1">
<path style=" stroke:none;fill-rule:nonzero;fill:#1E90FF;fill-opacity:1;" d="M 38 2 C 35.414063 2 33.210938 3.6875 32.375 6 L 10 6 C 6.695313 6 4 8.695313 4 12 L 4 82 C 4 85.304688 6.695313 88 10 88 L 42 88 L 42 42 C 42 36.484375 46.484375 32 52 32 L 72 32 L 72 12 C 72 8.695313 69.304688 6 66 6 L 43.625 6 C 42.789063 3.6875 40.585938 2 38 2 Z M 38 6 C 39.125 6 40 6.875 40 8 C 40 9.125 39.125 10 38 10 C 36.875 10 36 9.125 36 8 C 36 6.875 36.875 6 38 6 Z M 22 10 L 32.375 10 C 33.210938 12.3125 35.414063 14 38 14 C 40.585938 14 42.789063 12.3125 43.625 10 L 54 10 L 54 16 C 54 18.210938 52.210938 20 50 20 L 26 20 C 23.789063 20 22 18.210938 22 16 Z M 22 30 L 26 30 L 26 42 L 30 42 L 30 34 L 34 34 L 34 42 L 38 42 L 38 46 L 10 46 L 10 42 L 14 42 L 14 36 L 18 36 L 18 42 L 22 42 Z M 52 36 C 48.695313 36 46 38.695313 46 42 L 46 88 C 46 91.304688 48.695313 94 52 94 L 88 94 C 91.304688 94 94 91.304688 94 88 L 94 42 C 94 38.695313 91.304688 36 88 36 Z M 56 44 L 84 44 C 85.109375 44 86 44.898438 86 46 L 86 54 C 86 55.109375 85.109375 56 84 56 L 56 56 C 54.890625 56 54 55.109375 54 54 L 54 46 C 54 44.898438 54.890625 44 56 44 Z M 24 54 C 30.617188 54 36 59.382813 36 66 C 36 72.617188 30.617188 78 24 78 C 17.382813 78 12 72.617188 12 66 C 12 59.382813 17.382813 54 24 54 Z M 24 58 C 19.585938 58 16 61.585938 16 66 C 16 70.414063 19.585938 74 24 74 C 28.414063 74 32 70.414063 32 66 L 24 66 Z M 56 60 L 60 60 C 61.101563 60 62 60.898438 62 62 L 62 64 C 62 65.101563 61.101563 66 60 66 L 56 66 C 54.898438 66 54 65.101563 54 64 L 54 62 C 54 60.898438 54.898438 60 56 60 Z M 68 60 L 72 60 C 73.101563 60 74 60.898438 74 62 L 74 64 C 74 65.101563 73.101563 66 72 66 L 68 66 C 66.898438 66 66 65.101563 66 64 L 66 62 C 66 60.898438 66.898438 60 68 60 Z M 80 60 L 84 60 C 85.101563 60 86 60.898438 86 62 L 86 64 C 86 65.101563 85.101563 66 84 66 L 80 66 C 78.898438 66 78 65.101563 78 64 L 78 62 C 78 60.898438 78.898438 60 80 60 Z M 56 70 L 60 70 C 61.101563 70 62 70.898438 62 72 L 62 74 C 62 75.101563 61.101563 76 60 76 L 56 76 C 54.898438 76 54 75.101563 54 74 L 54 72 C 54 70.898438 54.898438 70 56 70 Z M 68 70 L 72 70 C 73.101563 70 74 70.898438 74 72 L 74 74 C 74 75.101563 73.101563 76 72 76 L 68 76 C 66.898438 76 66 75.101563 66 74 L 66 72 C 66 70.898438 66.898438 70 68 70 Z M 80 70 L 84 70 C 85.101563 70 86 70.898438 86 72 L 86 74 C 86 75.101563 85.101563 76 84 76 L 80 76 C 78.898438 76 78 75.101563 78 74 L 78 72 C 78 70.898438 78.898438 70 80 70 Z M 56 80 L 60 80 C 61.101563 80 62 80.898438 62 82 L 62 84 C 62 85.101563 61.101563 86 60 86 L 56 86 C 54.898438 86 54 85.101563 54 84 L 54 82 C 54 80.898438 54.898438 80 56 80 Z M 68 80 L 72 80 C 73.101563 80 74 80.898438 74 82 L 74 84 C 74 85.101563 73.101563 86 72 86 L 68 86 C 66.898438 86 66 85.101563 66 84 L 66 82 C 66 80.898438 66.898438 80 68 80 Z M 80 80 L 84 80 C 85.101563 80 86 80.898438 86 82 L 86 84 C 86 85.101563 85.101563 86 84 86 L 80 86 C 78.898438 86 78 85.101563 78 84 L 78 82 C 78 80.898438 78.898438 80 80 80 Z "/>
</g>
</svg>
