<?xml version="1.0" encoding="UTF-8"?>
<svg xmlns="http://www.w3.org/2000/svg" xmlns:xlink="http://www.w3.org/1999/xlink" width="100pt" height="100pt" viewBox="0 0 100 100" version="1.1">
<g id="surface1">
<path style=" stroke:none;fill-rule:nonzero;fill:#1E90FF;fill-opacity:1;" d="M 3.625 4 C 3.5625 4.015625 3.5 4.039063 3.4375 4.0625 C 1.492188 4.335938 0 5.984375 0 8 C 0 10.210938 1.789063 12 4 12 C 6.210938 12 8 10.210938 8 8 L 17.3125 8 C 19.804688 8 21.101563 8.515625 22.0625 9.375 C 23.007813 10.226563 23.773438 11.648438 24.4375 13.875 L 24.4375 13.9375 L 40.4375 78.4375 C 41.039063 80.726563 41.578125 83.078125 43.25 85 C 43.9375 85.796875 44.820313 86.445313 45.875 86.9375 C 44.71875 88.328125 44 90.070313 44 92 C 44 96.398438 47.601563 100 52 100 C 56.398438 100 60 96.398438 60 92 C 60 90.53125 59.570313 89.1875 58.875 88 L 71.125 88 C 70.429688 89.1875 70 90.53125 70 92 C 70 96.398438 73.601563 100 78 100 C 82.398438 100 86 96.398438 86 92 C 86 89.945313 85.164063 88.109375 83.875 86.6875 C 84.101563 86.078125 84.007813 85.390625 83.640625 84.859375 C 83.265625 84.320313 82.65625 84 82 84 L 51.4375 84 C 48.359375 84 47.15625 83.34375 46.3125 82.375 C 45.476563 81.421875 44.90625 79.734375 44.3125 77.5 L 44.3125 77.4375 L 42.9375 72 L 79.625 72 C 80.453125 72 81.203125 71.46875 81.5 70.6875 L 95.875 32.6875 C 96.109375 32.070313 96 31.414063 95.625 30.875 C 95.25 30.335938 94.65625 30 94 30 L 32.5625 30 L 28.3125 12.9375 C 28.3125 12.898438 28.3125 12.851563 28.3125 12.8125 C 27.546875 10.234375 26.5625 8 24.75 6.375 C 22.9375 4.75 20.414063 4 17.3125 4 L 4 4 C 3.9375 4 3.875 4 3.8125 4 C 3.75 4 3.6875 4 3.625 4 Z M 62 38 C 63.109375 38 64 38.898438 64 40 L 64 48 L 72 48 C 73.109375 48 74 48.898438 74 50 C 74 51.101563 73.109375 52 72 52 L 64 52 L 64 60 C 64 61.109375 63.109375 62 62 62 C 60.890625 62 60 61.109375 60 60 L 60 52 L 52 52 C 50.898438 52 50 51.101563 50 50 C 50 48.898438 50.898438 48 52 48 L 60 48 L 60 40 C 60 38.898438 60.890625 38 62 38 Z M 52 88 C 54.234375 88 56 89.765625 56 92 C 56 94.234375 54.234375 96 52 96 C 49.765625 96 48 94.234375 48 92 C 48 89.765625 49.765625 88 52 88 Z M 78 88 C 80.234375 88 82 89.765625 82 92 C 82 94.234375 80.234375 96 78 96 C 75.765625 96 74 94.234375 74 92 C 74 89.765625 75.765625 88 78 88 Z "/>
</g>
</svg>
