<?xml version="1.0" encoding="UTF-8"?>
<svg xmlns="http://www.w3.org/2000/svg" xmlns:xlink="http://www.w3.org/1999/xlink" width="100pt" height="100pt" viewBox="0 0 100 100" version="1.1">
<g id="surface1">
<path style=" stroke:none;fill-rule:nonzero;fill:#1E90FF;fill-opacity:1;" d="M 40.4375 0 C 39.460938 0 38.59375 0.71875 38.4375 1.6875 L 36.5 13.375 C 34.09375 14.070313 31.789063 15 29.625 16.1875 L 20 9.3125 C 19.203125 8.742188 18.132813 8.8125 17.4375 9.5 L 9.625 17.3125 C 8.9375 18 8.882813 19.078125 9.4375 19.875 L 16.1875 29.5625 C 14.976563 31.757813 14.015625 34.09375 13.3125 36.5 L 1.6875 38.4375 C 0.726563 38.601563 0 39.460938 0 40.4375 L 0 51.4375 C 0 52.40625 0.671875 53.203125 1.625 53.375 L 13.3125 55.4375 C 14.007813 57.84375 14.976563 60.179688 16.1875 62.375 L 9.3125 72 C 8.742188 72.796875 8.8125 73.867188 9.5 74.5625 L 17.3125 82.375 C 18 83.0625 19.078125 83.117188 19.875 82.5625 L 29.625 75.75 C 31.8125 76.953125 34.109375 77.929688 36.5 78.625 L 38.4375 90.3125 C 38.59375 91.273438 39.460938 92 40.4375 92 L 51.4375 92 C 51.5 92 51.710938 91.992188 52 92 L 52 98 C 52 99.109375 52.890625 100 54 100 L 98 100 C 99.109375 100 100 99.109375 100 98 L 100 63.6875 C 100 60.546875 97.453125 58 94.3125 58 L 77.5625 58 C 77.882813 57.140625 78.25 56.21875 78.5 55.4375 L 90.3125 53.375 C 91.273438 53.203125 92 52.40625 92 51.4375 L 92 40.4375 C 92 39.460938 91.28125 38.59375 90.3125 38.4375 L 78.5 36.5 C 77.804688 34.125 76.875 31.84375 75.6875 29.6875 L 82.5625 19.875 C 83.117188 19.078125 83.0625 18 82.375 17.3125 L 74.5625 9.5 C 73.867188 8.804688 72.796875 8.742188 72 9.3125 L 62.3125 16.3125 C 60.132813 15.109375 57.820313 14.132813 55.4375 13.4375 L 53.375 1.625 C 53.203125 0.671875 52.40625 0 51.4375 0 Z M 46 31.3125 C 54.101563 31.3125 60.6875 37.898438 60.6875 46 C 60.6875 54.101563 54.101563 60.6875 46 60.6875 C 37.898438 60.6875 31.3125 54.101563 31.3125 46 C 31.3125 37.898438 37.898438 31.3125 46 31.3125 Z M 57.6875 62 L 94.3125 62 C 95.242188 62 96 62.75 96 63.6875 L 96 64 L 56 64 L 56 63.6875 C 56 62.75 56.75 62 57.6875 62 Z M 56 68 L 96 68 L 96 96 L 56 96 Z M 74 69.1875 L 72.5625 70.5625 L 65.875 77.25 L 63.3125 75.0625 L 61.8125 73.75 L 59.1875 76.8125 L 60.6875 78.0625 L 64.6875 81.5 L 66.125 82.75 L 75.4375 73.4375 L 76.8125 72 Z M 74 79.1875 L 72.5625 80.5625 L 65.875 87.25 L 63.3125 85.0625 L 61.8125 83.75 L 59.1875 86.8125 L 60.6875 88.0625 L 64.6875 91.5 L 66.125 92.75 L 75.4375 83.4375 L 76.8125 82 Z "/>
</g>
</svg>
