<?xml version="1.0" encoding="UTF-8"?>
<svg xmlns="http://www.w3.org/2000/svg" xmlns:xlink="http://www.w3.org/1999/xlink" width="100pt" height="100pt" viewBox="0 0 100 100" version="1.1">
<g id="surface1">
<path style=" stroke:none;fill-rule:nonzero;fill:#1E90FF;fill-opacity:1;" d="M 50 2 C 45.578125 2 42 5.578125 42 10 L 42 12 L 24 12 C 20.601563 12 18 14.601563 18 18 L 18 92 C 18 95.398438 20.601563 98 24 98 L 76 98 C 79.398438 98 82 95.398438 82 92 L 82 18 C 82 14.601563 79.398438 12 76 12 L 58 12 L 58 10 C 58 5.578125 54.421875 2 50 2 Z M 50 6 C 52.382813 6 54 7.617188 54 10 L 54 18 L 46 18 L 46 10 C 46 7.617188 47.617188 6 50 6 Z M 50 8 C 48.898438 8 48 8.898438 48 10 C 48 11.101563 48.898438 12 50 12 C 51.101563 12 52 11.101563 52 10 C 52 8.898438 51.101563 8 50 8 Z M 66.585938 42.585938 L 69.414063 45.414063 L 44 70.828125 L 30.585938 57.414063 L 33.414063 54.585938 L 44 65.171875 Z "/>
</g>
</svg>
