<?xml version="1.0" encoding="UTF-8"?>
<svg xmlns="http://www.w3.org/2000/svg" xmlns:xlink="http://www.w3.org/1999/xlink" width="100pt" height="100pt" viewBox="0 0 100 100" version="1.1">
<g id="surface1">
<path style=" stroke:none;fill-rule:nonzero;fill:#1E90FF;fill-opacity:1;" d="M 49.6875 4.0625 C 48.8125 4.0625 47.9375 4.070313 47.0625 4.125 C 38.21875 4.679688 29.414063 7.8125 21.875 13.625 C 10.59375 22.328125 4.007813 35.757813 4 50 C 4 51.34375 3.984375 52.75 4.1875 54.25 L 4.4375 56 L 16.375 56 L 16.1875 53.8125 C 16.0625 52.554688 15.984375 51.265625 16 50 C 16.046875 31.195313 31.257813 16.078125 50.0625 16.125 C 60.335938 16.148438 69.960938 20.867188 76.375 28.8125 L 70.5625 34.5625 L 67.1875 38 L 94 38 L 94 11.1875 L 90.5625 14.5625 L 84.875 20.3125 C 75.789063 9.65625 62.828125 4.007813 49.6875 4.0625 Z M 49.8125 8.0625 C 62.429688 8.023438 74.9375 13.601563 83.25 24.375 L 84.625 26.1875 L 86.25 24.5625 L 90 20.875 L 90 34 L 76.875 34 L 80.5 30.3125 L 81.75 29.125 L 80.6875 27.75 C 73.554688 17.960938 62.234375 12.15625 50.125 12.125 C 29.164063 12.070313 12.054688 29.039063 12 50 C 11.992188 50.671875 12.03125 51.328125 12.0625 52 L 8.125 52 C 8.101563 51.335938 8 50.71875 8 50 C 8.007813 36.992188 14.078125 24.695313 24.375 16.75 C 31.273438 11.429688 39.242188 8.632813 47.3125 8.125 C 48.15625 8.070313 48.96875 8.0625 49.8125 8.0625 Z M 83.5625 44 L 83.8125 46.25 C 85.90625 64.9375 72.5 81.71875 53.8125 83.8125 C 52.546875 83.953125 51.273438 84 50 84 C 39.671875 84 30.03125 79.203125 23.625 71.1875 L 29.4375 65.4375 L 32.8125 62 L 6 62 L 6 88.8125 L 9.4375 85.4375 L 15.125 79.6875 C 30.921875 98.21875 58.632813 101.40625 78.125 86.375 C 89.40625 77.671875 95.992188 64.242188 96 50 C 96 48.65625 96.015625 47.25 95.8125 45.75 L 95.5625 44 Z M 87.8125 48 L 91.875 48 C 91.898438 48.664063 92 49.28125 92 50 C 91.992188 63.007813 85.921875 75.304688 75.625 83.25 C 57.242188 97.429688 30.929688 94.007813 16.75 75.625 L 15.375 73.8125 L 13.75 75.4375 L 10 79.125 L 10 66 L 23.125 66 L 19.5 69.6875 L 18.3125 70.875 L 19.25 72.25 C 26.367188 82.125 37.828125 88 50 88 C 51.421875 88 52.835938 87.90625 54.25 87.75 C 74.320313 85.507813 88.851563 67.914063 87.8125 48 Z "/>
</g>
</svg>
