<?xml version="1.0" encoding="UTF-8"?>
<svg xmlns="http://www.w3.org/2000/svg" xmlns:xlink="http://www.w3.org/1999/xlink" width="100pt" height="100pt" viewBox="0 0 100 100" version="1.1">
<g id="surface1">
<path style=" stroke:none;fill-rule:nonzero;fill:#1E90FF;fill-opacity:1;" d="M 62 2 C 60.796875 2 60 2.796875 60 4 L 60 30 L 64 30 L 64 4 C 64 2.796875 63.203125 2 62 2 Z M 64 30 L 64 47.1875 L 70.625 40.625 C 71.421875 39.828125 72.578125 39.828125 73.375 40.625 C 74.171875 41.421875 74.171875 42.578125 73.375 43.375 L 62 54.8125 L 50.625 43.375 C 49.828125 42.578125 49.828125 41.421875 50.625 40.625 C 51.421875 39.828125 52.578125 39.828125 53.375 40.625 L 60 47.1875 L 60 30 L 32.625 30 L 28.375 12.8125 C 26.976563 8.210938 24.578125 4 17.375 4 L 4 4 C 1.789063 4 0 5.789063 0 8 C 0 10.210938 1.789063 12 4 12 C 6.210938 12 8 10.210938 8 8 L 17.375 8 C 21.578125 8 23.226563 9.414063 24.625 13.8125 L 40.625 78.375 C 41.476563 81.507813 42.414063 85.101563 45.9375 86.875 C 44.75 88.273438 44 90.039063 44 92 C 44 96.398438 47.601563 100 52 100 C 56.398438 100 60 96.398438 60 92 C 60 90.53125 59.570313 89.1875 58.875 88 L 71.125 88 C 70.429688 89.1875 70 90.53125 70 92 C 70 96.398438 73.601563 100 78 100 C 82.398438 100 86 96.398438 86 92 C 86 89.921875 85.179688 88.046875 83.875 86.625 C 83.9375 86.429688 84 86.226563 84 86 C 84 84.796875 83.203125 84 82 84 L 51.375 84 C 45.976563 84 45.390625 81.773438 44.1875 77.375 L 43 72 L 79.625 72 C 80.421875 72 81.171875 71.414063 81.375 70.8125 L 95.8125 32.8125 C 96.015625 32.210938 96.023438 31.398438 95.625 31 C 95.226563 30.398438 94.601563 30 94 30 Z M 51.625 88 L 52 88 C 54.203125 88 56 89.796875 56 92 C 56 94.203125 54.203125 96 52 96 C 49.796875 96 48 94.203125 48 92 C 48 89.929688 49.601563 88.1875 51.625 88 Z M 78 88 C 80.203125 88 82 89.796875 82 92 C 82 94.203125 80.203125 96 78 96 C 75.796875 96 74 94.203125 74 92 C 74 89.796875 75.796875 88 78 88 Z "/>
</g>
</svg>
