<?xml version="1.0" encoding="UTF-8"?>
<svg xmlns="http://www.w3.org/2000/svg" xmlns:xlink="http://www.w3.org/1999/xlink" width="100pt" height="100pt" viewBox="0 0 100 100" version="1.1">
<g id="surface1">
<path style=" stroke:none;fill-rule:nonzero;fill:#1E90FF;fill-opacity:1;" d="M 4 4 C 1.789063 4 0 5.789063 0 8 C 0 10.210938 1.789063 12 4 12 C 6.210938 12 8 10.210938 8 8 L 17.3125 8 C 21.484375 8 23.085938 9.335938 24.4375 13.875 L 40.4375 78.4375 C 41.289063 81.65625 42.25 85.21875 45.875 86.9375 C 44.734375 88.320313 44 90.070313 44 92 C 44 96.414063 47.585938 100 52 100 C 56.414063 100 60 96.414063 60 92 C 60 90.539063 59.5625 89.179688 58.875 88 L 71.125 88 C 70.4375 89.179688 70 90.539063 70 92 C 70 96.414063 73.585938 100 78 100 C 82.414063 100 86 96.414063 86 92 C 86 89.921875 85.179688 88.046875 83.875 86.625 C 83.945313 86.421875 84 86.226563 84 86 C 84 84.898438 83.101563 84 82 84 L 51.4375 84 C 46.046875 84 45.460938 81.84375 44.3125 77.5 L 42.9375 72 L 79.625 72 C 80.453125 72 81.210938 71.460938 81.5 70.6875 L 95.875 32.6875 C 96.109375 32.078125 95.992188 31.414063 95.625 30.875 C 95.257813 30.335938 94.648438 30 94 30 L 32.5625 30 L 28.3125 12.8125 C 26.953125 8.234375 24.640625 4 17.3125 4 Z M 54.75 12.375 C 54.242188 12.375 53.703125 12.609375 53.3125 13 L 40.25 26 L 69.1875 26 L 56.125 13 C 55.734375 12.609375 55.257813 12.375 54.75 12.375 Z M 70.75 12.4375 C 70.234375 12.4375 69.6875 12.625 69.3125 13 L 65.5625 16.75 L 74.8125 26 L 85.1875 26 L 72.125 13 C 71.75 12.625 71.265625 12.4375 70.75 12.4375 Z M 52 88 C 54.203125 88 56 89.796875 56 92 C 56 94.203125 54.203125 96 52 96 C 49.796875 96 48 94.203125 48 92 C 48 89.796875 49.796875 88 52 88 Z M 78 88 C 80.203125 88 82 89.796875 82 92 C 82 94.203125 80.203125 96 78 96 C 75.796875 96 74 94.203125 74 92 C 74 89.796875 75.796875 88 78 88 Z "/>
</g>
</svg>
