<?xml version="1.0" encoding="UTF-8"?>
<svg xmlns="http://www.w3.org/2000/svg" xmlns:xlink="http://www.w3.org/1999/xlink" width="100pt" height="100pt" viewBox="0 0 100 100" version="1.1">
<g id="surface1">
<path style=" stroke:none;fill-rule:nonzero;fill:#1E90FF;fill-opacity:1;" d="M 41.25 18 C 40.453125 18 39.710938 18.117188 39 18.3125 C 38.445313 18.460938 37.875 18.625 37.375 18.875 C 37.351563 18.882813 37.335938 18.921875 37.3125 18.9375 C 36.773438 19.21875 36.28125 19.570313 35.8125 19.9375 C 35.789063 19.953125 35.773438 19.984375 35.75 20 C 35.289063 20.375 34.882813 20.75 34.5 21.1875 C 34.484375 21.210938 34.453125 21.226563 34.4375 21.25 C 34.03125 21.71875 33.679688 22.242188 33.375 22.75 C 32.414063 22.382813 31.453125 22.171875 30.5625 22.125 C 29.085938 22.054688 27.765625 22.375 26.625 23 C 24.351563 24.25 22.75 26.148438 21.0625 27.5625 C 19.335938 29.007813 14.171875 32.804688 9.5625 36.125 C 4.953125 39.445313 0.875 42.375 0.875 42.375 C 0.164063 42.71875 -0.273438 43.445313 -0.25 44.234375 C -0.226563 45.023438 0.257813 45.726563 0.984375 46.023438 C 1.71875 46.328125 2.554688 46.171875 3.125 45.625 C 3.125 45.625 7.3125 42.710938 11.9375 39.375 C 16.5625 36.039063 21.617188 32.359375 23.6875 30.625 C 25.695313 28.9375 27.242188 27.226563 28.5625 26.5 C 29.648438 25.90625 30.492188 25.734375 32.0625 26.5 C 32.03125 26.773438 32 27.046875 32 27.3125 L 32 51.125 L 29.25 52.375 C 28.515625 52.601563 27.976563 53.242188 27.867188 54 C 27.757813 54.765625 28.101563 55.523438 28.742188 55.953125 C 29.382813 56.375 30.210938 56.398438 30.875 56 L 49.375 47.5 L 49.4375 47.5 C 52.070313 46.09375 54.828125 44.804688 56.9375 44.375 C 59.046875 43.945313 60.101563 44.125 61 45.3125 C 62.054688 46.703125 62.296875 48.234375 61.8125 49.9375 C 61.328125 51.640625 60.039063 53.492188 57.8125 55.0625 C 53.148438 58.359375 45.9375 60.8125 45.9375 60.8125 L 45.5625 60.9375 L 45.25 61.1875 C 41.539063 64.34375 39.390625 67.34375 36.6875 69.375 C 33.984375 71.40625 30.640625 72.75 23.75 72.75 L 23.625 72.75 L 1.875 74 C 0.773438 74.070313 -0.0703125 75.023438 0 76.125 C 0.0703125 77.226563 1.023438 78.070313 2.125 78 L 23.75 76.75 C 23.796875 76.75 23.828125 76.75 23.875 76.75 C 28.984375 76.734375 32.695313 75.890625 35.625 74.5625 C 36.132813 76.0625 37.179688 77.34375 38.8125 77.875 C 41.109375 78.617188 43.375 78.398438 45.1875 77.625 C 45.992188 77.28125 46.726563 76.8125 47.375 76.3125 C 48.007813 77.765625 49.140625 79.125 50.875 79.75 C 52.695313 80.40625 54.507813 80.554688 56.125 80.125 C 57.742188 79.695313 59.0625 78.78125 60.3125 77.625 C 60.523438 77.429688 60.664063 77.28125 60.8125 77.125 C 61.234375 77.414063 61.71875 77.609375 62.25 77.75 C 64.84375 78.429688 67.875 77.6875 70.1875 75.375 C 72.21875 73.34375 73.4375 70.226563 73.875 66 L 91.3125 66 C 91.914063 66 92.492188 65.929688 93.0625 65.8125 C 95.890625 65.226563 98.210938 63.242188 99.3125 60.625 C 99.53125 60.101563 99.695313 59.570313 99.8125 59 C 99.929688 58.429688 100 57.851563 100 57.25 L 100 27.125 C 100 26.820313 99.96875 26.546875 99.9375 26.25 C 99.835938 25.367188 99.617188 24.5 99.25 23.6875 C 99.007813 23.117188 98.726563 22.632813 98.375 22.125 C 98.367188 22.109375 98.382813 22.078125 98.375 22.0625 C 97 20.101563 94.882813 18.664063 92.5 18.1875 C 91.914063 18.0625 91.359375 18 90.75 18 Z M 36 28 L 96 28 L 96 36 L 36 36 Z M 46 66 L 47.375 66 C 47.257813 67.40625 47.054688 69.523438 46.8125 70.875 C 46.78125 71.039063 46.773438 71.203125 46.75 71.375 C 46.640625 71.445313 46.53125 71.53125 46.4375 71.625 C 45.578125 72.648438 44.585938 73.5 43.5625 73.9375 C 42.539063 74.375 41.515625 74.53125 40.0625 74.0625 C 39.703125 73.945313 39.296875 73.367188 39.25 72.4375 C 41.828125 70.46875 43.726563 68.234375 46 66 Z M 51.4375 66 L 58.9375 66 C 58.796875 66.929688 58.671875 67.992188 58.5625 69.0625 C 58.429688 70.367188 58.3125 71.929688 58.625 73.5 C 58.515625 73.648438 58.46875 73.679688 58.3125 73.875 C 57.984375 74.289063 57.40625 74.890625 57.625 74.6875 C 56.648438 75.59375 55.8125 76.109375 55.0625 76.3125 C 54.3125 76.515625 53.523438 76.460938 52.25 76 C 51.570313 75.757813 51.21875 75.320313 50.9375 74.5 C 50.65625 73.679688 50.578125 72.515625 50.75 71.5625 C 51.09375 69.671875 51.335938 67.257813 51.4375 66 Z M 63 66 L 69.8125 66 C 69.40625 69.367188 68.476563 71.460938 67.375 72.5625 C 65.890625 74.046875 64.632813 74.234375 63.25 73.875 C 62.789063 73.75 62.75 73.640625 62.5625 72.8125 C 62.375 71.984375 62.375 70.6875 62.5 69.5 C 62.632813 68.21875 62.828125 66.976563 63 66 Z "/>
</g>
</svg>
