<?xml version="1.0" encoding="UTF-8"?>
<svg xmlns="http://www.w3.org/2000/svg" xmlns:xlink="http://www.w3.org/1999/xlink" width="100pt" height="100pt" viewBox="0 0 100 100" version="1.1">
<g id="surface1">
<path style=" stroke:none;fill-rule:nonzero;fill:#1E90FF;fill-opacity:1;" d="M 50 0 C 46.304688 0 43.28125 2.578125 42.375 6 L 20 6 C 16.695313 6 14 8.695313 14 12 L 14 90 C 14 93.304688 16.695313 96 20 96 L 80 96 C 83.304688 96 86 93.304688 86 90 L 86 12 C 86 8.695313 83.304688 6 80 6 L 66.125 6 C 66.085938 6 66.039063 6 66 6 L 57.625 6 C 56.71875 2.578125 53.695313 0 50 0 Z M 50 4 C 52.234375 4 54 5.765625 54 8 C 54 9.101563 54.898438 10 56 10 L 64 10 L 64 16 C 64 17.132813 63.132813 18 62 18 L 38 18 C 36.867188 18 36 17.132813 36 16 L 36 10 L 44 10 C 45.101563 10 46 9.101563 46 8 C 46 5.765625 47.765625 4 50 4 Z M 30 36 L 38 36 L 38 44 L 30 44 Z M 48 38 L 72 38 C 73.109375 38 74 38.898438 74 40 C 74 41.101563 73.109375 42 72 42 L 48 42 C 46.890625 42 46 41.101563 46 40 C 46 38.898438 46.890625 38 48 38 Z M 30 52 L 38 52 L 38 60 L 30 60 Z M 48 54 L 72 54 C 73.109375 54 74 54.898438 74 56 C 74 57.101563 73.109375 58 72 58 L 48 58 C 46.890625 58 46 57.101563 46 56 C 46 54.898438 46.890625 54 48 54 Z M 30 68 L 38 68 L 38 76 L 30 76 Z M 48 70 L 72 70 C 73.109375 70 74 70.898438 74 72 C 74 73.101563 73.109375 74 72 74 L 48 74 C 46.890625 74 46 73.101563 46 72 C 46 70.898438 46.890625 70 48 70 Z "/>
</g>
</svg>
