<?xml version="1.0" encoding="UTF-8"?>
<svg xmlns="http://www.w3.org/2000/svg" xmlns:xlink="http://www.w3.org/1999/xlink" width="100pt" height="100pt" viewBox="0 0 100 100" version="1.1">
<g id="surface1">
<path style=" stroke:none;fill-rule:nonzero;fill:#1E90FF;fill-opacity:1;" d="M 49.96875 7.972656 C 49.871094 7.976563 49.773438 7.984375 49.679688 8 L 18 8 C 12.5 8 8 12.5 8 18 L 8 61.664063 C 7.964844 61.878906 7.964844 62.101563 8 62.316406 L 8 82 C 8 87.5 12.5 92 18 92 L 49.664063 92 C 49.878906 92.035156 50.101563 92.035156 50.316406 92 L 82 92 C 87.5 92 92 87.5 92 82 L 92 38.335938 C 92.035156 38.121094 92.035156 37.898438 92 37.683594 L 92 18 C 92 12.5 87.5 8 82 8 L 50.308594 8 C 50.195313 7.980469 50.082031 7.972656 49.96875 7.972656 Z M 18 12 L 48 12 L 48 37.664063 C 47.964844 37.878906 47.964844 38.101563 48 38.316406 L 48 60 L 12 60 L 12 18 C 12 14.664063 14.664063 12 18 12 Z M 52 12 L 82 12 C 85.335938 12 88 14.664063 88 18 L 88 36 L 52 36 Z M 52 40 L 88 40 L 88 82 C 88 85.335938 85.335938 88 82 88 L 52 88 L 52 62.335938 C 52.035156 62.121094 52.035156 61.898438 52 61.683594 Z M 12 64 L 48 64 L 48 88 L 18 88 C 14.664063 88 12 85.335938 12 82 Z "/>
</g>
</svg>
