<?xml version="1.0" encoding="UTF-8"?>
<svg xmlns="http://www.w3.org/2000/svg" xmlns:xlink="http://www.w3.org/1999/xlink" width="100pt" height="100pt" viewBox="0 0 100 100" version="1.1">
<g id="surface1">
<path style=" stroke:none;fill-rule:nonzero;fill:#1E90FF;fill-opacity:1;" d="M 90 4 C 87.789063 4 86 5.789063 86 8 C 86 8.585938 86.148438 9.125 86.375 9.625 L 70.375 32 C 70.25 31.992188 70.125 32 70 32 C 69.203125 32 68.4375 32.21875 67.8125 32.625 L 54 25.75 C 53.867188 23.65625 52.125 22 50 22 C 47.789063 22 46 23.789063 46 26 C 46 26.210938 46.03125 26.421875 46.0625 26.625 L 31.4375 38.25 C 30.992188 38.078125 30.507813 38 30 38 C 28 38 26.359375 39.460938 26.0625 41.375 L 12.4375 46.875 C 11.757813 46.34375 10.921875 46 10 46 C 7.789063 46 6 47.789063 6 50 C 6 52.210938 7.789063 54 10 54 C 12.015625 54 13.664063 52.507813 13.9375 50.5625 L 27.5625 45.125 C 28.242188 45.65625 29.078125 46 30 46 C 32.210938 46 34 44.210938 34 42 C 34 41.789063 33.96875 41.578125 33.9375 41.375 L 48.5625 29.75 C 49.007813 29.921875 49.492188 30 50 30 C 50.796875 30 51.5625 29.78125 52.1875 29.375 L 66 36.25 C 66.132813 38.34375 67.875 40 70 40 C 72.210938 40 74 38.210938 74 36 C 74 35.414063 73.851563 34.875 73.625 34.375 L 89.625 12 C 89.75 12.007813 89.875 12 90 12 C 92.210938 12 94 10.210938 94 8 C 94 5.789063 92.210938 4 90 4 Z M 82 30 L 82 100 L 98 100 L 98 30 Z M 42 48 L 42 100 L 58 100 L 58 48 Z M 62 58 L 62 100 L 78 100 L 78 58 Z M 22 64 L 22 100 L 38 100 L 38 64 Z M 2 72 L 2 100 L 18 100 L 18 72 Z "/>
</g>
</svg>
