<?xml version="1.0" encoding="UTF-8"?>
<svg xmlns="http://www.w3.org/2000/svg" xmlns:xlink="http://www.w3.org/1999/xlink" width="100pt" height="100pt" viewBox="0 0 100 100" version="1.1">
<g id="surface1">
<path style=" stroke:none;fill-rule:nonzero;fill:#1E90FF;fill-opacity:1;" d="M 14 8 C 8.507813 8 4 12.507813 4 18 L 4 66 C 4 71.492188 8.507813 76 14 76 L 22.1875 76 C 22.460938 78.40625 22.429688 80.632813 21.8125 82.5 C 21.054688 84.796875 19.640625 86.726563 17 88.3125 C 16.257813 88.78125 15.914063 89.679688 16.140625 90.523438 C 16.367188 91.367188 17.125 91.96875 18 92 C 26.484375 92 36.210938 87.570313 41.125 76 L 86 76 C 91.492188 76 96 71.492188 96 66 L 96 18 C 96 12.507813 91.492188 8 86 8 Z M 14 12 L 86 12 C 89.3125 12 92 14.6875 92 18 L 92 66 C 92 69.3125 89.3125 72 86 72 L 40 72 C 39.164063 72 38.414063 72.523438 38.125 73.3125 C 35.015625 81.796875 29.460938 85.835938 23.6875 87.3125 C 24.46875 86.195313 25.210938 85.015625 25.625 83.75 C 26.664063 80.59375 26.578125 77.140625 25.9375 73.625 C 25.757813 72.695313 24.953125 72.015625 24 72 L 14 72 C 10.6875 72 8 69.3125 8 66 L 8 18 C 8 14.6875 10.6875 12 14 12 Z "/>
</g>
</svg>
