<?xml version="1.0" encoding="UTF-8"?>
<svg xmlns="http://www.w3.org/2000/svg" xmlns:xlink="http://www.w3.org/1999/xlink" width="100pt" height="100pt" viewBox="0 0 100 100" version="1.1">
<g id="surface1">
<path style=" stroke:none;fill-rule:nonzero;fill:#1E90FF;fill-opacity:1;" d="M 99.992188 55.882813 C 99.570313 48.765625 94.789063 46.5 91.296875 44.851563 C 89.476563 43.984375 87.898438 43.242188 87.328125 42.085938 C 87.242188 40.960938 87.25 40.054688 87.257813 39.023438 L 87.257813 38.867188 C 88.257813 37.703125 89.101563 35.804688 89.5 34.085938 C 90.382813 33.476563 91.304688 32.273438 91.601563 29.859375 C 91.742188 28.632813 91.460938 27.640625 91.007813 26.898438 C 91.695313 24.390625 92.78125 18.929688 90.492188 15.25 C 89.492188 13.632813 87.953125 12.554688 86.007813 12.09375 C 84.765625 10.734375 82.632813 10 79.867188 10 L 79.859375 10 C 75.570313 10.078125 72.40625 11.421875 70.453125 13.992188 C 68.234375 16.921875 67.757813 21.234375 69.03125 26.835938 C 68.554688 27.585938 68.25 28.609375 68.398438 29.867188 C 68.695313 32.289063 69.625 33.492188 70.507813 34.09375 C 70.921875 35.796875 71.789063 37.703125 72.804688 38.875 L 72.804688 39.03125 C 72.8125 40.054688 72.820313 40.960938 72.734375 42.078125 C 72.460938 42.578125 71.898438 43.023438 71.101563 43.453125 C 69.226563 38.359375 64.851563 36.34375 61.546875 34.820313 C 59.585938 33.921875 57.882813 33.132813 57.328125 32.078125 C 57.242188 30.960938 57.25 30.0625 57.257813 29.03125 L 57.265625 28.867188 C 58.257813 27.703125 59.109375 25.8125 59.507813 24.085938 C 60.382813 23.484375 61.3125 22.273438 61.601563 19.859375 C 61.75 18.640625 61.46875 17.640625 61.015625 16.898438 C 61.695313 14.390625 62.78125 8.929688 60.5 5.257813 C 59.492188 3.640625 57.953125 2.554688 56.015625 2.09375 C 55.03125 1.023438 53.226563 0.03125 49.867188 0.03125 C 45.570313 0.117188 42.398438 1.453125 40.453125 4.023438 C 38.234375 6.945313 37.765625 11.25 39.039063 16.835938 C 38.5625 17.585938 38.257813 18.609375 38.40625 19.867188 C 38.695313 22.289063 39.625 23.492188 40.515625 24.09375 C 40.921875 25.796875 41.796875 27.703125 42.804688 28.875 L 42.804688 29.039063 C 42.8125 30.070313 42.820313 30.96875 42.734375 32.078125 C 42.179688 33.132813 40.46875 33.921875 38.5 34.820313 C 35.179688 36.34375 30.789063 38.359375 28.90625 43.453125 C 28.109375 43.023438 27.539063 42.578125 27.273438 42.078125 C 27.1875 40.953125 27.195313 40.046875 27.203125 39.007813 L 27.203125 38.875 C 28.210938 37.703125 29.085938 35.796875 29.492188 34.09375 C 30.375 33.484375 31.304688 32.28125 31.601563 29.859375 C 31.75 28.601563 31.445313 27.578125 30.96875 26.828125 C 32.242188 21.234375 31.765625 16.914063 29.546875 13.992188 C 27.59375 11.421875 24.429688 10.078125 20.101563 10 C 17.359375 10 15.234375 10.734375 13.992188 12.09375 C 12.046875 12.554688 10.507813 13.640625 9.5 15.257813 C 7.21875 18.929688 8.304688 24.390625 8.992188 26.898438 C 8.539063 27.640625 8.257813 28.640625 8.398438 29.867188 C 8.695313 32.28125 9.617188 33.484375 10.5 34.09375 C 10.898438 35.8125 11.742188 37.703125 12.742188 38.867188 L 12.742188 39.03125 C 12.75 40.0625 12.757813 40.96875 12.671875 42.09375 C 12.101563 43.242188 10.515625 43.992188 8.703125 44.851563 C 5.210938 46.5 0.429688 48.765625 0 56 L 0 78 C 0 78.132813 0.015625 78.265625 0.0390625 78.398438 C 0.15625 78.984375 3.09375 92.03125 23.046875 98.578125 C 23.046875 98.578125 23.375 98.867188 25.960938 99.171875 C 25.953125 98.289063 25.953125 96.820313 26.03125 95.367188 C 26.78125 88.0625 32.664063 85.679688 36.992188 83.921875 C 39.351563 82.96875 41.578125 82.0625 42.242188 80.765625 C 42.34375 79.53125 42.328125 78.53125 42.320313 77.398438 L 42.320313 77.171875 C 41.210938 75.914063 40.242188 73.796875 39.804688 71.921875 C 38.867188 71.304688 37.851563 70.03125 37.539063 67.40625 C 37.375 66.054688 37.71875 64.960938 38.234375 64.171875 C 36.835938 58.101563 37.335938 53.429688 39.734375 50.273438 C 41.820313 47.523438 45.21875 46.078125 49.828125 46 C 52.820313 46 55.101563 46.789063 56.414063 48.257813 C 58.507813 48.742188 60.171875 49.898438 61.242188 51.625 C 63.710938 55.601563 62.5 61.5625 61.757813 64.234375 C 62.257813 65.023438 62.578125 66.09375 62.421875 67.414063 C 62.101563 70.03125 61.09375 71.304688 60.148438 71.921875 C 59.71875 73.796875 58.78125 75.90625 57.695313 77.15625 L 57.6875 77.398438 C 57.679688 78.53125 57.671875 79.523438 57.765625 80.765625 C 58.4375 82.070313 60.65625 82.976563 63 83.921875 C 67.335938 85.6875 73.234375 88.085938 73.9375 95.367188 C 74.023438 96.429688 74 98.445313 73.984375 99.320313 C 75.867188 99.109375 75.984375 98.921875 75.984375 98.921875 C 96.851563 92.484375 99.835938 79.007813 99.960938 78.398438 C 99.984375 78.265625 100 78.132813 100 78 Z "/>
</g>
</svg>
