<?xml version="1.0" encoding="UTF-8"?>
<svg xmlns="http://www.w3.org/2000/svg" xmlns:xlink="http://www.w3.org/1999/xlink" width="100pt" height="100pt" viewBox="0 0 100 100" version="1.1">
<g id="surface1">
<path style=" stroke:none;fill-rule:nonzero;fill:#1E90FF;fill-opacity:1;" d="M 8.125 10 C 6.078125 10 3.976563 10.835938 2.375 12.4375 C -0.828125 15.640625 -0.828125 20.609375 2.375 23.8125 C 3.171875 24.617188 5.578125 27.015625 6.375 27.8125 C 8.171875 29.609375 10.789063 30.398438 13.1875 30 L 18.375 35.1875 L 25.1875 28.4375 L 20 23.25 C 20.398438 20.851563 19.609375 18.234375 17.8125 16.4375 L 13.8125 12.4375 C 12.210938 10.835938 10.171875 10 8.125 10 Z M 54.1875 10 C 50.984375 10 48.015625 11.226563 45.8125 13.625 L 13.1875 46 C 10.789063 45.601563 8.171875 46.390625 6.375 48.1875 L 2.375 52.1875 C -0.828125 55.390625 -0.828125 60.359375 2.375 63.5625 C 5.578125 66.765625 10.609375 66.765625 13.8125 63.5625 C 14.609375 62.765625 17.015625 60.359375 17.8125 59.5625 C 19.609375 57.765625 20.398438 55.148438 20 52.75 L 62.8125 10 Z M 7.6875 15.0625 C 8.617188 14.914063 9.59375 15.21875 10.3125 16 C 10.695313 16.414063 12.929688 18.648438 13.3125 19.0625 C 14.273438 20.101563 14.171875 22.085938 13.125 23.25 C 11.882813 24.40625 10.085938 24.304688 8.9375 23.0625 C 8.554688 22.648438 6.320313 20.476563 5.9375 20.0625 C 4.789063 18.820313 4.882813 17.023438 6.125 15.875 C 6.59375 15.445313 7.125 15.15625 7.6875 15.0625 Z M 46 32 L 42 36 L 52 36 L 52 32 Z M 56 32 L 56 36 L 64 36 L 64 32 Z M 68 32 L 68 36 L 76 36 L 76 32 Z M 80 32 L 80 36 L 88 36 L 88 32 Z M 92 32 L 92 36 L 96 36 L 96 40 L 100 40 L 100 32 Z M 28 35.8125 C 29.210938 35.8125 30.1875 36.789063 30.1875 38 C 30.1875 39.210938 29.210938 40.1875 28 40.1875 C 26.789063 40.1875 25.8125 39.210938 25.8125 38 C 25.8125 36.789063 26.789063 35.8125 28 35.8125 Z M 37.625 40.8125 L 30.9375 47.5 L 43.8125 60.375 C 46.015625 62.773438 48.984375 64 52.1875 64 L 60.8125 64 Z M 96 44 L 96 52 L 100 52 L 100 44 Z M 11.375 51.8125 C 12.125 51.8125 12.898438 52.085938 13.5 52.6875 C 14.5 53.890625 14.5 55.875 13.5 56.875 C 13.101563 57.273438 10.773438 59.414063 10.375 59.8125 C 9.171875 61.015625 7.390625 61.015625 6.1875 59.8125 C 4.984375 58.609375 4.984375 56.828125 6.1875 55.625 C 6.585938 55.226563 8.914063 53.085938 9.3125 52.6875 C 9.914063 52.085938 10.625 51.8125 11.375 51.8125 Z M 24 54 L 20 62 L 20 64 L 24 64 Z M 96 56 L 96 64 L 100 64 L 100 56 Z M 20 68 L 20 76 L 24 76 L 24 68 Z M 96 68 L 96 76 L 100 76 L 100 68 Z M 20 80 L 20 88 L 28 88 L 28 84 L 24 84 L 24 80 Z M 96 80 L 96 84 L 92 84 L 92 88 L 100 88 L 100 80 Z M 32 84 L 32 88 L 40 88 L 40 84 Z M 44 84 L 44 88 L 52 88 L 52 84 Z M 56 84 L 56 88 L 64 88 L 64 84 Z M 68 84 L 68 88 L 76 88 L 76 84 Z M 80 84 L 80 88 L 88 88 L 88 84 Z "/>
</g>
</svg>
