<?xml version="1.0" encoding="UTF-8"?>
<svg xmlns="http://www.w3.org/2000/svg" xmlns:xlink="http://www.w3.org/1999/xlink" width="100pt" height="100pt" viewBox="0 0 100 100" version="1.1">
<g id="surface1">
<path style=" stroke:none;fill-rule:nonzero;fill:#1E90FF;fill-opacity:1;" d="M 5.59375 16 C 1.65625 16.3125 0 19.53125 0 21.78125 L 0 74 C 0 77.304688 2.695313 80 6 80 L 14.1875 80 C 15.140625 85.65625 20.078125 90 26 90 C 31.921875 90 36.859375 85.65625 37.8125 80 L 62 80 L 62 21.804688 C 62 18.710938 59.289063 16 56.195313 16 Z M 30 26 C 39.898438 26 48 34.101563 48 44 C 48 53.898438 39.898438 62 30 62 C 20.101563 62 12 53.898438 12 44 C 12 34.101563 20.101563 26 30 26 Z M 66 30 L 66 80 L 68.179688 80 C 69.132813 85.664063 74.0625 90 80 90 C 85.9375 90 90.859375 85.664063 91.820313 80 L 94 80 C 97.085938 80 100 77.085938 100 74 L 100 54.804688 C 100 50.882813 97.164063 46.71875 96.804688 46.210938 L 88.5625 35.15625 C 87.023438 33.226563 83.867188 30 80 30 Z M 28 32 L 28 43 L 20.804688 48.398438 L 23.195313 51.601563 L 32 45 L 32 32 Z M 76 34 L 80 34 C 81.578125 34 83.609375 35.367188 85.398438 37.59375 L 93.5625 48.546875 C 94.164063 49.414063 95.609375 51.882813 95.9375 54 L 78 54 C 77.101563 54 76 52.898438 76 52 Z M 26 70 C 30.445313 70 34 73.554688 34 78 C 34 82.445313 30.445313 86 26 86 C 21.554688 86 18 82.445313 18 78 C 18 73.554688 21.554688 70 26 70 Z M 80 70 C 84.414063 70 88 73.585938 88 78 C 88 82.414063 84.414063 86 80 86 C 75.585938 86 72 82.414063 72 78 C 72 73.585938 75.585938 70 80 70 Z "/>
</g>
</svg>
