<?xml version="1.0" encoding="UTF-8"?>
<svg xmlns="http://www.w3.org/2000/svg" xmlns:xlink="http://www.w3.org/1999/xlink" width="100pt" height="100pt" viewBox="0 0 100 100" version="1.1">
<g id="surface1">
<path style=" stroke:none;fill-rule:nonzero;fill:#1E90FF;fill-opacity:1;" d="M 14 4 L 14 96 L 79.59375 96 L 82.992188 100 L 100 80 L 90 80 L 90 62 L 86 62 L 86 31.199219 L 58.800781 4 Z M 60 10.800781 L 79.171875 29.96875 L 60 29.96875 Z M 36.921875 46 C 38.460938 46 39.542969 46.3125 40 46.59375 L 39.300781 49.777344 C 38.742188 49.496094 38.179688 49.289063 37.058594 49.289063 C 34.503906 49.289063 31.882813 51.632813 31.882813 58.070313 C 31.882813 64.402344 34.261719 66.679688 37.097656 66.679688 C 37.972656 66.679688 38.847656 66.464844 39.40625 66.257813 L 39.859375 69.40625 C 39.160156 69.757813 37.933594 70 36.394531 70 C 31.007813 70 27.929688 65.589844 27.929688 58.3125 C 27.929688 49.253906 32.722656 46 36.921875 46 Z M 56.902344 46 L 61.070313 46 L 63.0625 56.753906 C 63.523438 59.390625 64.128906 62.558594 64.484375 65.476563 L 64.59375 65.476563 C 64.914063 62.523438 65.445313 59.460938 65.945313 56.683594 L 67.871094 46 L 72 46 L 66.480469 70 L 62.3125 70 Z M 50.765625 46.003906 C 52.269531 46.003906 53.636719 46.457031 54.265625 46.84375 L 53.601563 50.058594 C 52.941406 49.636719 51.957031 49.257813 50.695313 49.257813 C 48.5625 49.257813 47.546875 50.6875 47.546875 52.125 C 47.546875 53.945313 48.492188 54.785156 50.90625 56.324219 C 53.878906 58.28125 55.066406 60.554688 55.066406 63.074219 C 55.066406 67.308594 52.058594 70.003906 47.824219 70.003906 C 46.074219 70.003906 44.289063 69.515625 43.554688 69.023438 L 44.1875 65.804688 C 45.0625 66.328125 46.597656 66.75 47.824219 66.75 C 50.132813 66.75 51.394531 65.417969 51.394531 63.457031 C 51.394531 61.570313 50.242188 60.484375 48.316406 59.152344 C 45.691406 57.472656 43.871094 55.132813 43.871094 52.578125 C 43.871094 48.902344 46.355469 46.003906 50.765625 46.003906 Z M 80 66 L 86 66 L 86 84 L 91.199219 84 L 82.992188 94 L 74.800781 84 L 80 84 Z "/>
</g>
</svg>
