<?xml version="1.0" encoding="UTF-8"?>
<svg xmlns="http://www.w3.org/2000/svg" xmlns:xlink="http://www.w3.org/1999/xlink" width="100pt" height="100pt" viewBox="0 0 100 100" version="1.1">
<g id="surface1">
<path style=" stroke:none;fill-rule:nonzero;fill:#1E90FF;fill-opacity:1;" d="M 60.800781 4 L 14 4 L 14 96 L 86 96 L 86 29.199219 Z M 72 54 C 71.796875 54 71.605469 53.96875 71.40625 53.941406 L 59.71875 68.550781 C 59.894531 69.003906 60 69.488281 60 70 C 60 72.210938 58.210938 74 56 74 C 53.789063 74 52 72.210938 52 70 C 52 69.5625 52.089844 69.148438 52.21875 68.757813 L 40.808594 55.921875 C 40.546875 55.972656 40.277344 56 40 56 C 39.644531 56 39.304688 55.9375 38.976563 55.851563 L 31.851563 62.976563 C 31.9375 63.304688 32 63.644531 32 64 C 32 66.210938 30.210938 68 28 68 C 25.789063 68 24 66.210938 24 64 C 24 61.789063 25.789063 60 28 60 C 28.355469 60 28.695313 60.0625 29.023438 60.148438 L 36.148438 53.023438 C 36.0625 52.695313 36 52.355469 36 52 C 36 49.789063 37.789063 48 40 48 C 42.210938 48 44 49.789063 44 52 C 44 52.4375 43.910156 52.851563 43.78125 53.242188 L 55.191406 66.078125 C 55.453125 66.027344 55.722656 66 56 66 C 56.203125 66 56.398438 66.03125 56.59375 66.058594 L 68.28125 51.449219 C 68.105469 50.996094 68 50.511719 68 50 C 68 47.789063 69.789063 46 72 46 C 74.210938 46 76 47.789063 76 50 C 76 52.210938 74.210938 54 72 54 Z M 60 30 L 60 8.800781 L 81.199219 30 Z "/>
</g>
</svg>
