<?xml version="1.0" encoding="UTF-8"?>
<svg xmlns="http://www.w3.org/2000/svg" xmlns:xlink="http://www.w3.org/1999/xlink" width="100pt" height="100pt" viewBox="0 0 100 100" version="1.1">
<g id="surface1">
<path style=" stroke:none;fill-rule:nonzero;fill:#1E90FF;fill-opacity:1;" d="M 50 2 C 32.859375 2 18.484375 14.0625 14.875 30.125 C 15.242188 30.085938 15.625 30 16 30 C 17.023438 30 18.007813 30.210938 18.9375 30.5 C 22.328125 16.476563 34.945313 6 50 6 C 65.046875 6 77.671875 16.476563 81.0625 30.5 C 81.992188 30.210938 82.96875 30 84 30 C 84.375 30 84.757813 30.085938 85.125 30.125 C 81.515625 14.0625 67.132813 2 50 2 Z M 16 34 C 12.695313 34 10 36.695313 10 40 L 10 70 C 10 73.304688 12.695313 76 16 76 C 19.304688 76 22 73.304688 22 70 L 22 40 C 22 36.695313 19.304688 34 16 34 Z M 84 34 C 80.695313 34 78 36.695313 78 40 L 78 70 C 78 73.304688 80.695313 76 84 76 C 87.304688 76 90 73.304688 90 70 L 90 40 C 90 36.695313 87.304688 34 84 34 Z M 6 40.25 C 2.390625 43.148438 0 48.585938 0 55 C 0 61.414063 2.390625 66.851563 6 69.75 Z M 94 40.25 L 94 69.75 C 97.609375 66.851563 100 61.414063 100 55 C 100 48.585938 97.609375 43.148438 94 40.25 Z M 81.1875 79.5625 C 79.421875 84.992188 74.835938 88 68 88 L 65.8125 88 C 65.945313 88.648438 66 89.3125 66 90 C 66 90.6875 65.945313 91.351563 65.8125 92 L 68 92 C 76.984375 92 83.203125 87.484375 85.25 79.875 C 84.828125 79.929688 84.429688 80 84 80 C 83.015625 80 82.085938 79.828125 81.1875 79.5625 Z M 46 84 C 42.695313 84 40 86.695313 40 90 C 40 93.304688 42.695313 96 46 96 L 56 96 C 59.304688 96 62 93.304688 62 90 C 62 86.695313 59.304688 84 56 84 Z "/>
</g>
</svg>
