<?xml version="1.0" encoding="UTF-8"?>
<svg xmlns="http://www.w3.org/2000/svg" xmlns:xlink="http://www.w3.org/1999/xlink" width="100pt" height="100pt" viewBox="0 0 100 100" version="1.1">
<g id="surface1">
<path style=" stroke:none;fill-rule:nonzero;fill:#1E90FF;fill-opacity:1;" d="M 30.398438 10 C 29.695313 10 29.042969 10.371094 28.683594 10.972656 L 20.324219 24.90625 C 20.316406 24.921875 20.304688 24.9375 20.296875 24.953125 L 20.285156 24.972656 C 20.007813 25.402344 19.90625 25.917969 20 26.417969 L 20 86 C 20 87.105469 20.894531 88 22 88 L 78 88 C 79.105469 88 80 87.105469 80 86 L 80 26.417969 C 80.09375 25.917969 79.992188 25.402344 79.714844 24.972656 L 71.316406 10.972656 C 70.957031 10.371094 70.304688 10 69.601563 10 Z M 31.53125 14 L 48 14 L 48 24 L 25.53125 24 Z M 52 14 L 68.46875 14 L 74.46875 24 L 52 24 Z M 24 28 L 76 28 L 76 84 L 24 84 Z M 90 30 L 90 36 L 84 36 L 84 40 L 90 40 L 90 46 L 100 38 Z M 2 36 C 1.277344 35.988281 0.609375 36.367188 0.246094 36.992188 C -0.121094 37.613281 -0.121094 38.386719 0.246094 39.007813 C 0.609375 39.632813 1.277344 40.011719 2 40 L 16 40 L 16 36 Z M 40 36 C 39.277344 35.988281 38.609375 36.367188 38.246094 36.992188 C 37.878906 37.613281 37.878906 38.386719 38.246094 39.007813 C 38.609375 39.632813 39.277344 40.011719 40 40 L 60 40 C 60.722656 40.011719 61.390625 39.632813 61.753906 39.007813 C 62.121094 38.386719 62.121094 37.613281 61.753906 36.992188 C 61.390625 36.367188 60.722656 35.988281 60 36 Z M 10 66 L 0 74 L 10 82 L 10 76 L 16 76 L 16 72 L 10 72 Z M 84 72 L 84 76 L 98 76 C 98.722656 76.011719 99.390625 75.632813 99.753906 75.007813 C 100.121094 74.386719 100.121094 73.613281 99.753906 72.992188 C 99.390625 72.367188 98.722656 71.988281 98 72 Z "/>
</g>
</svg>
