<?xml version="1.0" encoding="UTF-8"?>
<svg xmlns="http://www.w3.org/2000/svg" xmlns:xlink="http://www.w3.org/1999/xlink" width="100pt" height="100pt" viewBox="0 0 100 100" version="1.1">
<g id="surface1">
<path style=" stroke:none;fill-rule:nonzero;fill:#1E90FF;fill-opacity:1;" d="M 18 8 C 12.5 8 8 12.5 8 18 L 8 82 C 8 87.5 12.5 92 18 92 L 82 92 C 87.5 92 92 87.5 92 82 L 92 18 C 92 12.5 87.5 8 82 8 Z M 18 12 L 82 12 C 85.335938 12 88 14.664063 88 18 L 88 82 C 88 85.335938 85.335938 88 82 88 L 18 88 C 14.664063 88 12 85.335938 12 82 L 12 18 C 12 14.664063 14.664063 12 18 12 Z M 50 22 C 46.710938 22 44 24.710938 44 28 C 44 31.289063 46.710938 34 50 34 C 53.289063 34 56 31.289063 56 28 C 56 24.710938 53.289063 22 50 22 Z M 50 26 C 51.128906 26 52 26.871094 52 28 C 52 29.128906 51.128906 30 50 30 C 48.871094 30 48 29.128906 48 28 C 48 26.871094 48.871094 26 50 26 Z M 50 44 C 46.710938 44 44 46.710938 44 50 C 44 53.289063 46.710938 56 50 56 C 53.289063 56 56 53.289063 56 50 C 56 46.710938 53.289063 44 50 44 Z M 50 48 C 51.128906 48 52 48.871094 52 50 C 52 51.128906 51.128906 52 50 52 C 48.871094 52 48 51.128906 48 50 C 48 48.871094 48.871094 48 50 48 Z M 50 66 C 46.710938 66 44 68.710938 44 72 C 44 75.289063 46.710938 78 50 78 C 53.289063 78 56 75.289063 56 72 C 56 68.710938 53.289063 66 50 66 Z M 50 70 C 51.128906 70 52 70.871094 52 72 C 52 73.128906 51.128906 74 50 74 C 48.871094 74 48 73.128906 48 72 C 48 70.871094 48.871094 70 50 70 Z "/>
</g>
</svg>
