<?xml version="1.0" encoding="UTF-8"?>
<svg xmlns="http://www.w3.org/2000/svg" xmlns:xlink="http://www.w3.org/1999/xlink" width="100pt" height="100pt" viewBox="0 0 100 100" version="1.1">
<g id="surface1">
<path style=" stroke:none;fill-rule:nonzero;fill:#1E90FF;fill-opacity:1;" d="M 22 0 C 21.367188 0 20.75 0.304688 20.375 0.8125 L 9 16 L 48 16 L 48 0 Z M 52 0 L 52 16 L 91 16 L 79.625 0.8125 C 79.25 0.304688 78.625 0 78 0 Z M 8 20 L 8 98 C 8 99.109375 8.898438 100 10 100 L 90 100 C 91.109375 100 92 99.109375 92 98 L 92 20 Z M 43 30 L 57 30 C 58.601563 30 60 31.398438 60 33 C 60 34.601563 58.601563 36 57 36 L 43 36 C 41.398438 36 40 34.601563 40 33 C 40 31.398438 41.398438 30 43 30 Z "/>
</g>
</svg>
