<?xml version="1.0" encoding="UTF-8"?>
<svg xmlns="http://www.w3.org/2000/svg" xmlns:xlink="http://www.w3.org/1999/xlink" width="100pt" height="100pt" viewBox="0 0 100 100" version="1.1">
<g id="surface1">
<path style=" stroke:none;fill-rule:nonzero;fill:#1E90FF;fill-opacity:1;" d="M 50 0 C 45.585938 0 42 3.585938 42 8 C 42 12.414063 45.585938 16 50 16 C 54.414063 16 58 12.414063 58 8 C 58 3.585938 54.414063 0 50 0 Z M 38.75 12.1875 C 29.609375 16.101563 24 24.914063 24 36 C 24 58 16.398438 63.523438 11.875 66.8125 C 9.867188 68.265625 8 69.617188 8 72 C 8 80.414063 20.5625 84 50 84 C 79.4375 84 92 80.414063 92 72 C 92 69.617188 90.132813 68.265625 88.125 66.8125 C 83.601563 63.523438 76 58 76 36 C 76 24.882813 70.398438 16.09375 61.25 12.1875 C 59.539063 16.734375 55.132813 20 50 20 C 44.867188 20 40.460938 16.726563 38.75 12.1875 Z M 38 87.75 C 38 87.828125 38 87.921875 38 88 C 38 94.617188 43.382813 100 50 100 C 56.617188 100 62 94.617188 62 88 C 62 87.921875 62 87.828125 62 87.75 C 58.234375 87.90625 54.234375 88 50 88 C 45.765625 88 41.765625 87.90625 38 87.75 Z "/>
</g>
</svg>
