<?xml version="1.0" encoding="UTF-8"?>
<svg xmlns="http://www.w3.org/2000/svg" xmlns:xlink="http://www.w3.org/1999/xlink" width="100pt" height="100pt" viewBox="0 0 100 100" version="1.1">
<g id="surface1">
<path style=" stroke:none;fill-rule:nonzero;fill:#1E90FF;fill-opacity:1;" d="M 44.8125 1.1875 L 41.1875 2.8125 L 45.9375 13.75 L 34.875 8.1875 L 33.125 11.8125 L 41.5 16 L 8 16 C 6.898438 16 6 16.898438 6 18 L 6 34 C 6 35.101563 6.898438 36 8 36 L 48 36 L 48 20 L 52 20 L 52 36 L 92 36 C 93.109375 36 94 35.101563 94 34 L 94 18 C 94 16.898438 93.109375 16 92 16 L 58.5 16 L 66.875 11.8125 L 65.125 8.1875 L 54.0625 13.75 L 58.8125 2.8125 L 55.1875 1.1875 L 50 13.0625 Z M 10 40 L 10 86 C 10 87.109375 10.898438 88 12 88 L 88 88 C 89.109375 88 90 87.109375 90 86 L 90 40 L 52 40 L 52 84 L 48 84 L 48 40 Z "/>
</g>
</svg>
