<?xml version="1.0" encoding="UTF-8"?>
<svg xmlns="http://www.w3.org/2000/svg" xmlns:xlink="http://www.w3.org/1999/xlink" width="100pt" height="100pt" viewBox="0 0 100 100" version="1.1">
<g id="surface1">
<path style=" stroke:none;fill-rule:nonzero;fill:#1E90FF;fill-opacity:1;" d="M 53.625 10 C 45.101563 10 38.328125 13.117188 34.625 18.8125 C 33.945313 19.851563 33.429688 20.96875 33 22.125 L 32.5625 21.125 C 32.226563 20.429688 31.523438 19.992188 30.75 20 C 23.78125 20 18.585938 22.804688 15.875 27 C 13.398438 30.820313 13.273438 35.648438 14.8125 40.125 C 14.148438 41.039063 13.6875 42.148438 13.875 43.75 C 14.085938 45.554688 14.5625 46.890625 15.3125 47.875 C 15.632813 48.296875 16.09375 48.296875 16.5 48.5625 C 16.765625 50.046875 17.148438 51.523438 17.75 52.75 C 18.109375 53.484375 18.53125 54.117188 18.9375 54.6875 C 19.070313 54.875 19.296875 55.015625 19.4375 55.1875 C 19.445313 56.765625 19.4375 58.117188 19.3125 59.75 C 18.945313 60.679688 18.085938 61.53125 16.4375 62.375 C 14.75 63.242188 12.453125 64.03125 10.125 65.0625 C 7.796875 66.09375 5.390625 67.335938 3.4375 69.375 C 1.484375 71.414063 0.0859375 74.242188 -0.125 77.875 C -0.15625 78.429688 0.0390625 78.96875 0.414063 79.367188 C 0.796875 79.773438 1.320313 80 1.875 80 L 14.4375 80 C 14.109375 81.179688 13.898438 82.460938 13.8125 83.875 C 13.78125 84.421875 14 84.976563 14.375 85.375 C 14.75 85.773438 15.265625 86 15.8125 86 L 84.1875 86 C 84.734375 86 85.25 85.773438 85.625 85.375 C 86.007813 84.976563 86.21875 84.421875 86.1875 83.875 C 86.101563 82.460938 85.890625 81.179688 85.5625 80 L 98 80 C 98.554688 80 99.078125 79.773438 99.460938 79.367188 C 99.835938 78.96875 100.03125 78.429688 100 77.875 C 99.789063 74.257813 98.375 71.460938 96.4375 69.4375 C 94.5 67.414063 92.125 66.148438 89.8125 65.125 C 87.5 64.101563 85.234375 63.296875 83.5625 62.4375 C 81.96875 61.617188 81.132813 60.773438 80.75 59.875 C 80.625 58.226563 80.617188 56.851563 80.625 55.25 C 80.75 55.085938 81 54.984375 81.125 54.8125 C 81.523438 54.242188 81.90625 53.609375 82.25 52.875 C 82.8125 51.6875 83.171875 50.234375 83.4375 48.8125 C 83.859375 48.546875 84.351563 48.5 84.6875 48.0625 C 85.4375 47.078125 85.851563 45.734375 86.0625 43.9375 C 86.195313 42.8125 86.117188 41.820313 85.75 40.9375 C 85.648438 40.703125 85.328125 40.59375 85.1875 40.375 C 85.601563 39.382813 86.070313 38.46875 86.1875 37.25 C 86.367188 35.398438 86.273438 33.28125 85.75 31.25 C 85.226563 29.21875 84.28125 27.25 82.6875 25.6875 C 81.40625 24.429688 79.601563 23.679688 77.5625 23.375 L 76.5625 21.1875 C 76.242188 20.46875 75.53125 20.007813 74.75 20 C 71.992188 20 69.195313 20.328125 66.5625 21.125 C 66.476563 20.921875 66.40625 20.703125 66.3125 20.5 C 64.328125 16.4375 60.929688 14.078125 56.6875 13.6875 L 55.375 11.125 C 55.03125 10.445313 54.382813 10 53.625 10 Z M 73.5625 24.1875 L 74.25 25.875 C 74.578125 26.609375 75.320313 27.078125 76.125 27.0625 C 77.882813 27.0625 78.960938 27.601563 79.875 28.5 C 80.789063 29.398438 81.484375 30.734375 81.875 32.25 C 82.265625 33.765625 82.382813 35.421875 82.25 36.8125 C 82.117188 38.203125 81.617188 39.328125 81.4375 39.5625 C 81.070313 40.023438 80.929688 40.632813 81.046875 41.210938 C 81.171875 41.789063 81.539063 42.28125 82.0625 42.5625 C 82.109375 42.695313 82.1875 42.984375 82.125 43.5 C 81.96875 44.8125 81.65625 45.421875 81.5 45.625 C 81.4375 45.703125 81.382813 45.679688 81.375 45.6875 C 80.507813 45.851563 79.84375 46.5625 79.75 47.4375 C 79.632813 48.5625 79.15625 50.007813 78.625 51.125 C 78.359375 51.679688 78.101563 52.179688 77.875 52.5 C 77.648438 52.820313 77.375 52.976563 77.6875 52.8125 C 77.039063 53.15625 76.632813 53.828125 76.625 54.5625 C 76.625 56.585938 76.539063 58.234375 76.75 60.625 C 76.773438 60.796875 76.8125 60.960938 76.875 61.125 C 77.726563 63.484375 79.703125 64.945313 81.75 66 C 83.796875 67.054688 86.078125 67.8125 88.1875 68.75 C 90.296875 69.6875 92.195313 70.765625 93.5625 72.1875 C 94.515625 73.179688 95.15625 74.460938 95.5625 76 L 84 76 C 83.9375 76 83.875 76 83.8125 76 C 80.59375 70.796875 74.710938 68.4375 69.6875 66.4375 C 65.53125 64.78125 61.960938 63.34375 60.875 60.875 C 60.703125 58.835938 60.671875 57.265625 60.6875 55.4375 L 60.6875 54.625 C 62.3125 52.921875 63.945313 49.46875 64.5625 46.3125 C 65.890625 45.601563 67.460938 43.929688 67.9375 39.9375 C 68.164063 38.03125 67.75 36.515625 67.0625 35.5 C 68.1875 32.851563 68.53125 28.828125 67.75 24.9375 C 69.539063 24.453125 71.5625 24.273438 73.5625 24.1875 Z M 29.625 24.25 L 30.3125 25.6875 C 30.617188 26.320313 31.234375 26.75 31.9375 26.8125 C 31.679688 29.65625 32.0625 32.570313 33.125 35.4375 C 32.382813 36.46875 31.835938 38.023438 32.0625 39.9375 C 32.539063 43.9375 34.109375 45.609375 35.4375 46.3125 C 36.070313 49.421875 37.726563 52.914063 39.375 54.625 L 39.375 55.375 C 39.390625 57.210938 39.421875 58.828125 39.25 60.875 C 38.164063 63.34375 34.546875 64.78125 30.375 66.4375 C 25.335938 68.4375 19.421875 70.796875 16.1875 76 C 16.125 76 16.0625 76 16 76 L 4.3125 76 C 4.726563 74.453125 5.351563 73.125 6.3125 72.125 C 7.6875 70.695313 9.617188 69.625 11.75 68.6875 C 13.882813 67.75 16.1875 66.992188 18.25 65.9375 C 20.3125 64.882813 22.328125 63.429688 23.1875 61.0625 C 23.226563 60.898438 23.25 60.734375 23.25 60.5625 C 23.460938 58.15625 23.4375 56.46875 23.4375 54.4375 C 23.445313 53.71875 23.0625 53.046875 22.4375 52.6875 C 22.507813 52.742188 22.523438 52.765625 22.375 52.6875 C 22.296875 52.625 22.226563 52.523438 22.125 52.375 C 21.890625 52.054688 21.648438 51.5625 21.375 51 C 20.828125 49.875 20.367188 48.429688 20.25 47.3125 C 20.171875 46.367188 19.4375 45.617188 18.5 45.5 C 18.484375 45.492188 18.460938 45.507813 18.4375 45.5 C 18.421875 45.484375 18.460938 45.460938 18.4375 45.4375 C 18.273438 45.226563 17.96875 44.632813 17.8125 43.3125 C 17.742188 42.71875 17.859375 42.421875 17.9375 42.3125 C 18.015625 42.265625 18.007813 42.242188 18 42.25 C 18.804688 41.726563 19.117188 40.703125 18.75 39.8125 C 17.117188 36.078125 17.328125 32.164063 19.25 29.1875 C 21.023438 26.445313 24.484375 24.5625 29.625 24.25 Z "/>
</g>
</svg>
