<?xml version="1.0" encoding="UTF-8"?>
<svg xmlns="http://www.w3.org/2000/svg" xmlns:xlink="http://www.w3.org/1999/xlink" width="100pt" height="100pt" viewBox="0 0 100 100" version="1.1">
<g id="surface1">
<path style=" stroke:none;fill-rule:nonzero;fill:#1E90FF;fill-opacity:1;" d="M 22 8 C 21.53125 8 21.109375 8.140625 20.75 8.4375 L 9.25 18 L 48 18 L 48 8 Z M 52 8 L 52 18 L 90.75 18 L 79.3125 8.4375 C 78.953125 8.140625 78.46875 8 78 8 Z M 8 22 L 8 90 C 8 91.109375 8.898438 92 10 92 L 90 92 C 91.109375 92 92 91.109375 92 90 L 92 22 Z M 43 32 L 57 32 C 58.601563 32 60 33.398438 60 35 C 60 36.601563 58.601563 38 57 38 L 43 38 C 41.398438 38 40 36.601563 40 35 C 40 33.398438 41.398438 32 43 32 Z M 62 62 L 68 68 L 64 68 L 64 76 L 60 76 L 60 68 L 56 68 Z M 76 62 L 82 68 L 78 68 L 78 76 L 74 76 L 74 68 L 70 68 Z M 56 78 L 82 78 L 82 82 L 56 82 Z "/>
</g>
</svg>
