<?xml version="1.0" encoding="UTF-8"?>
<svg xmlns="http://www.w3.org/2000/svg" xmlns:xlink="http://www.w3.org/1999/xlink" width="100pt" height="100pt" viewBox="0 0 100 100" version="1.1">
<g id="surface1">
<path style=" stroke:none;fill-rule:nonzero;fill:#1E90FF;fill-opacity:1;" d="M 40 8 C 29.015625 8 20 17.015625 20 28 L 20 63.5 L 14.25 57.75 L 8.625 63.4375 L 24 78.8125 L 39.375 63.4375 L 33.75 57.8125 L 28 63.5 L 28 28 C 28 21.382813 33.382813 16 40 16 L 62 16 L 62 8 Z M 76 21.1875 L 60.5625 36.625 L 66.25 42.25 L 72 36.5 L 72 72 C 72 78.617188 66.617188 84 60 84 L 38 84 L 38 92 L 60 92 C 70.984375 92 80 82.984375 80 72 L 80 36.5 L 85.75 42.25 L 91.375 36.5625 Z "/>
</g>
</svg>
