<?xml version="1.0" encoding="UTF-8"?>
<svg xmlns="http://www.w3.org/2000/svg" xmlns:xlink="http://www.w3.org/1999/xlink" width="100pt" height="100pt" viewBox="0 0 100 100" version="1.1">
<g id="surface1">
<path style=" stroke:none;fill-rule:nonzero;fill:#1E90FF;fill-opacity:1;" d="M 0 0 L 54 54 L 86.1875 21.8125 L 64.625 0 L 59 0 L 70.625 11.625 C 72.625 13.625 72 15.578125 71 18.375 C 70.601563 19.578125 70.1875 20.609375 70.1875 21.8125 C 70.1875 23.015625 70.773438 24.414063 71.375 25.8125 C 72.375 28.015625 72.992188 29.828125 72.1875 30.625 L 60 42.8125 C 59.601563 43.210938 58.171875 42.585938 57.375 42.1875 C 56.375 41.789063 55.375 41.375 54.375 41.375 C 53.578125 41.375 52.8125 41.796875 51.8125 42 C 49.8125 42.796875 48.8125 43 47.8125 42 L 12 6.1875 C 10.796875 4.984375 11.203125 4.1875 12 2.1875 C 12.203125 1.390625 12.375 0.796875 12.375 0 Z M 34.3125 0 C 33.28125 1.046875 32.3125 2 32.3125 2 C 27.15625 8.203125 26.960938 16.773438 32 21.8125 C 34.265625 24.078125 37.492188 25.429688 41.0625 25.625 C 45.28125 25.609375 49.34375 23.78125 52.5625 20.5625 C 57.867188 15.25 59.15625 7.617188 55.75 2 C 55.75 2 55.171875 1.125 54.4375 0 Z M 10.625 16.625 L 34 54 L 42.625 48.625 L 35.375 41.375 C 34.976563 41.375 34.585938 41.421875 34.1875 41.625 C 31.984375 42.023438 30.984375 42.023438 30.1875 40.625 L 23 29.1875 Z M 59.875 23.8125 C 58.421875 23.8125 57.078125 24.359375 56.125 25.3125 C 55.148438 26.28125 54.625 27.59375 54.625 29 C 54.8125 30.625 55.351563 31.914063 56.3125 32.875 C 58.257813 34.820313 61.742188 34.820313 63.6875 32.875 C 65.695313 30.867188 65.710938 27.445313 63.6875 25.25 C 62.757813 24.320313 61.328125 23.8125 59.875 23.8125 Z M 29.5625 55.75 C 25.960938 55.75 23 57.75 23 57.75 L 36 66.5625 C 37 66.164063 38.351563 65.75 39.75 65.75 C 41.75 65.75 44.585938 65.351563 47.1875 64.75 C 43.585938 62.546875 37.585938 58.796875 36.1875 58 C 34.1875 56.601563 31.765625 55.75 29.5625 55.75 Z M 73 55.75 C 63.398438 55.75 59.773438 59.773438 57.375 62.375 C 56.578125 63.171875 55.976563 63.789063 55.375 64.1875 C 54.578125 64.585938 53.1875 65.148438 51.1875 65.75 C 47.585938 66.75 43.203125 67.546875 40 67.75 C 36 67.953125 34 70.351563 34 72.75 C 34 73.351563 33.984375 73.773438 34.1875 74.375 L 34.1875 74.5625 C 34.1875 74.765625 34.375 74.804688 34.375 75 C 34.773438 75.796875 35.390625 76.398438 36.1875 77 C 36.984375 77.601563 38.210938 78 39.8125 78 L 51.1875 78 C 55.984375 78 62.585938 76.203125 63.1875 76 L 63.375 76 C 63.976563 75.796875 64.359375 75.960938 64.5625 76.5625 C 64.765625 76.960938 64.601563 77.546875 64 77.75 C 63.796875 77.75 57.210938 79.75 51.8125 79.75 L 39.8125 79.75 C 37.8125 79.75 34.773438 80 31.375 78 L 10 63.5625 C 5.195313 60.5625 -0.195313 61.960938 0 67.5625 C 0 69.5625 1.984375 72.179688 5.1875 74.375 C 7.789063 76.171875 36.976563 95.148438 39.375 96.75 C 41.773438 98.351563 44.375 100 48.375 100 C 50.578125 100 53.171875 99.351563 56.375 97.75 C 58.375 96.75 65.1875 93.164063 70.1875 90.5625 L 74.375 88.375 C 77.578125 86.773438 78.601563 86.960938 81 88.5625 L 86.375 92.1875 C 86.773438 92.390625 87.398438 92.578125 88 92.375 C 88.398438 92.171875 88.984375 91.789063 89.1875 91.1875 L 99.8125 67.5625 C 100.210938 66.5625 99.8125 65.398438 98.8125 65 C 82.414063 57.601563 78 55.75 73 55.75 Z M 16.375 58 C 14.375 58 11.164063 58.960938 10.5625 61.5625 L 32.5625 76.1875 L 32.8125 76.375 L 33 76.5625 C 32.203125 75.359375 31.8125 73.945313 31.8125 72.75 C 31.8125 70.945313 32.585938 69.148438 34.1875 67.75 L 24.1875 61 C 20.789063 58.796875 18.375 58 16.375 58 Z "/>
</g>
</svg>
