<?xml version="1.0" encoding="UTF-8"?>
<svg xmlns="http://www.w3.org/2000/svg" xmlns:xlink="http://www.w3.org/1999/xlink" width="100pt" height="100pt" viewBox="0 0 100 100" version="1.1">
<g id="surface1">
<path style=" stroke:none;fill-rule:nonzero;fill:#1E90FF;fill-opacity:1;" d="M 12 4 L 12 96 L 88 96 L 88 57.601563 L 96.195313 49.398438 L 96.804688 48.804688 C 96.804688 48.796875 96.804688 48.796875 96.804688 48.789063 L 97.601563 48 C 100.804688 44.796875 100.804688 39.601563 97.601563 36.398438 C 95 33.796875 91.09375 33.351563 88 34.976563 L 88 4 Z M 26 28 L 34 28 L 34 32 L 26 32 Z M 40 28 L 74 28 L 74 32 L 40 32 Z M 26 40 L 34 40 L 34 44 L 26 44 Z M 40 40 L 74 40 L 74 44 L 40 44 Z M 87.398438 40.601563 L 93.398438 46.601563 L 65.617188 74.382813 L 59.617188 68.382813 Z M 26 52 L 34 52 L 34 56 L 26 56 Z M 40 52 L 70.398438 52 L 66.40625 56 L 40 56 Z M 26 64 L 34 64 L 34 68 L 26 68 Z M 40 64 L 58.40625 64 L 54.40625 68 L 40 68 Z M 56.796875 71.21875 L 62.78125 77.203125 L 54.601563 79.398438 Z "/>
</g>
</svg>
