<?xml version="1.0" encoding="UTF-8"?>
<svg xmlns="http://www.w3.org/2000/svg" xmlns:xlink="http://www.w3.org/1999/xlink" width="100pt" height="100pt" viewBox="0 0 100 100" version="1.1">
<g id="surface1">
<path style=" stroke:none;fill-rule:nonzero;fill:#1E90FF;fill-opacity:1;" d="M 50 4 C 24.640625 4 4 24.640625 4 50 C 4 75.359375 24.640625 96 50 96 C 75.359375 96 96 75.359375 96 50 C 96.019531 48.558594 95.261719 47.214844 94.015625 46.488281 C 92.769531 45.761719 91.230469 45.761719 89.984375 46.488281 C 88.738281 47.214844 87.980469 48.558594 88 50 C 88 71.035156 71.035156 88 50 88 C 28.964844 88 12 71.035156 12 50 C 12 28.964844 28.964844 12 50 12 C 60.953125 12 70.785156 16.617188 77.710938 24 L 70 24 C 68.558594 23.980469 67.214844 24.738281 66.488281 25.984375 C 65.761719 27.230469 65.761719 28.769531 66.488281 30.015625 C 67.214844 31.261719 68.558594 32.019531 70 32 L 92 32 L 92 10 C 92.015625 8.917969 91.59375 7.878906 90.828125 7.113281 C 90.0625 6.351563 89.023438 5.929688 87.941406 5.945313 C 85.734375 5.976563 83.96875 7.792969 84 10 L 84 19.050781 C 75.582031 9.8125 63.457031 4 50 4 Z "/>
</g>
</svg>
