<?xml version="1.0" encoding="UTF-8"?>
<svg xmlns="http://www.w3.org/2000/svg" xmlns:xlink="http://www.w3.org/1999/xlink" width="100pt" height="100pt" viewBox="0 0 100 100" version="1.1">
<g id="surface1">
<path style=" stroke:none;fill-rule:nonzero;fill:#1E90FF;fill-opacity:1;" d="M 24 0 C 21.796875 0 20 1.796875 20 4 L 20 44 C 20 46.203125 21.796875 48 24 48 L 84 48 C 86.203125 48 88 46.203125 88 44 L 88 4 C 88 1.796875 86.203125 0 84 0 Z M 45 10 L 63 10 C 64.65625 10 66 11.34375 66 13 C 66 14.65625 64.65625 16 63 16 L 45 16 C 43.34375 16 42 14.65625 42 13 C 42 11.34375 43.34375 10 45 10 Z M 26.8125 55.8125 C 21.8125 55.8125 17.398438 57.601563 1 65 C 0 65.398438 -0.398438 66.625 0 67.625 L 10.625 91.1875 C 10.828125 91.789063 11.414063 92.171875 11.8125 92.375 C 12.414063 92.578125 12.976563 92.390625 13.375 92.1875 L 18.8125 88.625 C 21.210938 87.023438 22.171875 86.773438 25.375 88.375 L 29.625 90.625 C 34.625 93.226563 41.375 96.8125 43.375 97.8125 C 46.578125 99.414063 49.171875 100 51.375 100 C 55.375 100 57.976563 98.414063 60.375 96.8125 C 62.773438 95.210938 92.023438 76.171875 94.625 74.375 C 97.828125 72.171875 99.8125 69.625 99.8125 67.625 C 100.007813 62.023438 94.609375 60.625 89.8125 63.625 L 68.375 78 C 64.976563 80 62 79.8125 60 79.8125 L 48 79.8125 C 42.601563 79.8125 36.015625 77.8125 35.8125 77.8125 C 35.210938 77.609375 34.984375 77.023438 35.1875 76.625 C 35.390625 76.023438 35.773438 75.796875 36.375 76 L 36.625 76 C 37.226563 76.203125 43.828125 78 48.625 78 L 60 78 C 61.601563 78 62.828125 77.601563 63.625 77 C 64.421875 76.398438 64.976563 75.796875 65.375 75 C 65.375 74.796875 65.625 74.820313 65.625 74.625 L 65.625 74.375 C 65.828125 73.773438 65.8125 73.414063 65.8125 72.8125 C 65.8125 70.414063 63.8125 68.015625 59.8125 67.8125 C 56.609375 67.609375 52.226563 66.8125 48.625 65.8125 C 46.625 65.210938 45.171875 64.585938 44.375 64.1875 C 43.773438 63.789063 43.171875 63.171875 42.375 62.375 C 39.976563 59.773438 36.414063 55.8125 26.8125 55.8125 Z M 70.1875 56 C 67.984375 56 65.625 56.789063 63.625 58.1875 C 62.226563 58.984375 56.226563 62.804688 52.625 65 C 55.226563 65.601563 58 66 60 66 C 61.398438 66 62.8125 66.414063 63.8125 66.8125 L 76.8125 58 C 76.8125 58 73.789063 56 70.1875 56 Z M 83.375 58 C 81.375 58 79.023438 58.796875 75.625 61 L 65.625 67.8125 C 67.226563 69.210938 68 71.015625 68 72.8125 C 68 74.015625 67.609375 75.421875 66.8125 76.625 L 67 76.375 L 67.1875 76.1875 L 89.1875 61.625 C 88.585938 59.023438 85.375 58 83.375 58 Z "/>
</g>
</svg>
