<?xml version="1.0" encoding="UTF-8"?>
<svg xmlns="http://www.w3.org/2000/svg" xmlns:xlink="http://www.w3.org/1999/xlink" width="100pt" height="100pt" viewBox="0 0 100 100" version="1.1">
<g id="surface1">
<path style=" stroke:none;fill-rule:nonzero;fill:#1E90FF;fill-opacity:1;" d="M 5.625 16 C 1.6875 16.3125 0 19.5625 0 21.8125 L 0 74 C 0 77.304688 2.695313 80 6 80 L 14.1875 80 C 15.140625 85.671875 20.070313 90 26 90 C 31.929688 90 36.859375 85.671875 37.8125 80 L 62 80 L 62 21.8125 C 62 18.71875 59.28125 16 56.1875 16 Z M 45.875 29.1875 L 48.8125 31.875 L 28.5625 54 L 15.1875 42.1875 L 17.8125 39.1875 L 28.25 48.375 Z M 66 30 L 66 80 L 68.1875 80 C 69.140625 85.664063 74.0625 90 80 90 C 85.9375 90 90.851563 85.664063 91.8125 80 L 94 80 C 97.085938 80 100 77.085938 100 74 L 100 54.8125 C 100 50.890625 97.171875 46.695313 96.8125 46.1875 L 88.5625 35.125 C 87.023438 33.203125 83.867188 30 80 30 Z M 76 34 L 80 34 C 81.578125 34 83.59375 35.390625 85.375 37.625 L 93.5625 48.5625 C 94.164063 49.429688 95.617188 51.875 95.9375 54 L 78 54 C 77.101563 54 76 52.898438 76 52 Z M 26 70 C 30.445313 70 34 73.554688 34 78 C 34 82.445313 30.445313 86 26 86 C 21.554688 86 18 82.445313 18 78 C 18 73.554688 21.554688 70 26 70 Z M 80 70 C 84.414063 70 88 73.585938 88 78 C 88 82.414063 84.414063 86 80 86 C 75.585938 86 72 82.414063 72 78 C 72 73.585938 75.585938 70 80 70 Z "/>
</g>
</svg>
