<?xml version="1.0" encoding="UTF-8"?>
<svg xmlns="http://www.w3.org/2000/svg" xmlns:xlink="http://www.w3.org/1999/xlink" width="100pt" height="100pt" viewBox="0 0 100 100" version="1.1">
<g id="surface1">
<path style=" stroke:none;fill-rule:nonzero;fill:#1E90FF;fill-opacity:1;" d="M 50 2 C 38.96875 2 30 10.96875 30 22 L 30 26 L 14.1875 26 L 5.75 100 L 94.25 100 L 85.8125 26 L 74 26 L 74 38 C 74 41.3125 71.3125 44 68 44 C 67.554688 44 67.101563 43.96875 66.6875 43.875 C 64.007813 43.273438 62 40.867188 62 38 C 62 35.398438 63.679688 33.203125 66 32.375 L 66 38 C 66 39.101563 66.890625 40 68 40 C 69.109375 40 70 39.101563 70 38 L 70 22 C 70 10.96875 61.03125 2 50 2 Z M 50 6 C 58.820313 6 66 13.179688 66 22 L 66 26 L 38 26 L 38 38 C 38 41.3125 35.3125 44 32 44 C 31.554688 44 31.101563 43.96875 30.6875 43.875 C 28 43.273438 26 40.867188 26 38 C 26 35.398438 27.679688 33.203125 30 32.375 L 30 38 C 30 39.101563 30.898438 40 32 40 C 33.101563 40 34 39.101563 34 38 L 34 22 C 34 13.179688 41.179688 6 50 6 Z "/>
</g>
</svg>
