<?xml version="1.0" encoding="UTF-8"?>
<svg xmlns="http://www.w3.org/2000/svg" xmlns:xlink="http://www.w3.org/1999/xlink" width="100pt" height="100pt" viewBox="0 0 100 100" version="1.1">
<g id="surface1">
<path style=" stroke:none;fill-rule:nonzero;fill:#1E90FF;fill-opacity:1;" d="M 80 10 C 73.382813 10 68 15.382813 68 22 C 68 25.914063 69.894531 29.382813 72.800781 31.574219 C 67.589844 33.980469 64 38.894531 64 44.570313 L 64 51.640625 C 64 52.304688 64.332031 52.929688 64.882813 53.300781 C 65.292969 53.578125 69.203125 56 80 56 C 90.796875 56 94.707031 53.578125 95.117188 53.300781 C 95.667969 52.929688 96 52.304688 96 51.640625 L 96 44.570313 C 96 38.898438 92.410156 33.980469 87.199219 31.574219 C 90.105469 29.382813 92 25.914063 92 22 C 92 15.382813 86.617188 10 80 10 Z M 6 14 C 4.898438 14 4 14.898438 4 16 L 4 50 C 4 51.101563 4.898438 52 6 52 L 42 52 C 43.101563 52 44 51.101563 44 50 L 44 16 C 44 14.898438 43.101563 14 42 14 Z M 18 22 L 30 22 C 31.101563 22 32 22.898438 32 24 C 32 25.101563 31.101563 26 30 26 L 18 26 C 16.898438 26 16 25.101563 16 24 C 16 22.898438 16.898438 22 18 22 Z M 23.96875 55.972656 C 22.867188 55.988281 21.984375 56.898438 22 58 L 22 86 C 22 87.105469 22.894531 88 24 88 L 79.664063 88 C 80.316406 88.109375 80.984375 87.890625 81.441406 87.414063 C 81.441406 87.414063 81.445313 87.410156 81.445313 87.410156 C 81.449219 87.40625 81.453125 87.402344 81.457031 87.398438 C 81.460938 87.394531 81.46875 87.386719 81.472656 87.382813 C 81.90625 86.929688 82.101563 86.300781 82 85.683594 L 82 66.828125 L 86.585938 71.414063 C 87.085938 71.9375 87.832031 72.148438 88.535156 71.964844 C 89.234375 71.78125 89.78125 71.234375 89.964844 70.535156 C 90.148438 69.832031 89.9375 69.085938 89.414063 68.585938 L 81.414063 60.585938 C 81.03125 60.203125 80.511719 59.992188 79.96875 60 C 79.449219 60.007813 78.953125 60.21875 78.585938 60.585938 L 70.585938 68.585938 C 70.0625 69.085938 69.851563 69.832031 70.035156 70.535156 C 70.21875 71.234375 70.765625 71.78125 71.464844 71.964844 C 72.167969 72.148438 72.914063 71.9375 73.414063 71.414063 L 78 66.828125 L 78 84 L 26 84 L 26 58 C 26.007813 57.460938 25.796875 56.9375 25.414063 56.558594 C 25.03125 56.175781 24.507813 55.964844 23.96875 55.972656 Z "/>
</g>
</svg>
