<?xml version="1.0" encoding="UTF-8"?>
<svg xmlns="http://www.w3.org/2000/svg" xmlns:xlink="http://www.w3.org/1999/xlink" width="100pt" height="100pt" viewBox="0 0 100 100" version="1.1">
<g id="surface1">
<path style=" stroke:none;fill-rule:nonzero;fill:#1E90FF;fill-opacity:1;" d="M 54 8 C 37.421875 8 30.003906 18.546875 30.003906 29 C 30.003906 31.238281 30.480469 33.625 31.433594 36.109375 C 30.640625 37.101563 30.027344 38.503906 30 40.25 C 29.996094 40.5 29.996094 40.753906 30.019531 41.019531 C 30.535156 44.8125 32.050781 47.0625 33.695313 47.996094 C 34.351563 51.523438 36.234375 55.117188 38 56.910156 L 38 64.652344 C 36.835938 67.574219 32.742188 69.160156 28.019531 70.988281 C 20.289063 73.980469 10.664063 77.707031 10.003906 89.890625 C 9.972656 90.4375 10.167969 90.976563 10.546875 91.375 C 10.925781 91.773438 11.453125 92 12 92 L 52 92 L 52 98 C 52 99.105469 52.894531 100 54 100 L 98 100 C 99.105469 100 100 99.105469 100 98 L 100 56 C 100 54.894531 99.105469 54 98 54 L 63.988281 54 C 64.832031 52.425781 65.71875 50.316406 66.226563 48.113281 C 67.699219 47.460938 69.578125 45.730469 69.992188 41.164063 C 70.011719 40.9375 70 40.71875 70 40.5 C 70.007813 38.734375 69.457031 37.269531 68.621094 36.261719 C 69.503906 34.308594 70.011719 31.699219 70 28.992188 C 69.96875 20.914063 66.003906 12.765625 57.261719 12.050781 L 55.789063 9.105469 C 55.449219 8.429688 54.757813 8 54 8 Z M 56 58 L 96 58 L 96 96 L 56 96 Z M 68 62 C 67.277344 61.988281 66.609375 62.367188 66.246094 62.992188 C 65.878906 63.613281 65.878906 64.386719 66.246094 65.007813 C 66.609375 65.632813 67.277344 66.011719 68 66 L 84 66 C 84.722656 66.011719 85.390625 65.632813 85.753906 65.007813 C 86.121094 64.386719 86.121094 63.613281 85.753906 62.992188 C 85.390625 62.367188 84.722656 61.988281 84 62 Z "/>
</g>
</svg>
