<?xml version="1.0" encoding="UTF-8"?>
<svg xmlns="http://www.w3.org/2000/svg" xmlns:xlink="http://www.w3.org/1999/xlink" width="100pt" height="100pt" viewBox="0 0 100 100" version="1.1">
<g id="surface1">
<path style=" stroke:none;fill-rule:nonzero;fill:#1E90FF;fill-opacity:1;" d="M 50 8 C 27.589844 8 9.207031 25.648438 8.058594 47.792969 C 7.953125 49.238281 8.636719 50.628906 9.847656 51.425781 C 11.058594 52.222656 12.605469 52.304688 13.890625 51.636719 C 15.179688 50.96875 16.003906 49.65625 16.046875 48.207031 C 16.980469 30.238281 31.777344 16 50 16 C 61.328125 16 71.320313 21.519531 77.496094 30 L 76 30 C 74.558594 29.980469 73.214844 30.738281 72.488281 31.984375 C 71.761719 33.230469 71.761719 34.769531 72.488281 36.015625 C 73.214844 37.261719 74.558594 38.019531 76 38 L 92 38 L 92 22 C 92.015625 20.917969 91.59375 19.878906 90.828125 19.113281 C 90.0625 18.351563 89.023438 17.929688 87.941406 17.945313 C 85.734375 17.976563 83.96875 19.792969 84 22 L 84 25.339844 C 76.359375 14.828125 63.957031 8 50 8 Z M 45.800781 28 L 44.800781 34.398438 C 44.199219 34.597656 43.402344 35 42.800781 35.199219 L 37.398438 31.398438 L 31.398438 37.398438 L 35 42.398438 C 34.601563 43 34.398438 43.800781 34.199219 44.601563 L 28 45.601563 L 28 54 L 34.199219 55 C 34.398438 55.601563 34.800781 56.398438 35 57 L 31.398438 62.398438 L 37.398438 68.398438 L 42.800781 64.800781 C 43.601563 65.199219 44.199219 65.402344 45 65.601563 L 45.800781 72 L 54.199219 72 L 55.199219 65.601563 C 55.800781 65.402344 56.597656 65 57.199219 64.800781 L 62.601563 68.398438 L 68.601563 62.398438 L 64.800781 57.199219 C 65.199219 56.597656 65.402344 55.800781 65.601563 55.199219 L 72 54 L 72 45.601563 L 65.601563 44.601563 C 65.402344 44 65 43.203125 64.800781 42.601563 L 68.398438 37.199219 L 62.601563 31.398438 L 57.398438 35.199219 C 56.796875 34.800781 56 34.597656 55.398438 34.398438 L 54.199219 28 Z M 50 44 C 53.398438 44 56 46.601563 56 50 C 56 53.398438 53.398438 56 50 56 C 46.601563 56 44 53.398438 44 50 C 44 46.601563 46.601563 44 50 44 Z M 88.097656 47.945313 C 85.890625 47.863281 84.035156 49.585938 83.953125 51.792969 C 83.019531 69.761719 68.222656 84 50 84 C 38.675781 84 28.683594 78.484375 22.507813 70.003906 L 24 70.003906 C 25.441406 70.023438 26.785156 69.265625 27.511719 68.019531 C 28.238281 66.773438 28.238281 65.234375 27.511719 63.988281 C 26.785156 62.742188 25.441406 61.984375 24 62.003906 L 8 62 L 8 78 C 7.980469 79.441406 8.738281 80.785156 9.984375 81.511719 C 11.230469 82.238281 12.769531 82.238281 14.015625 81.511719 C 15.261719 80.785156 16.019531 79.441406 16 78 L 16 74.660156 C 23.640625 85.171875 36.042969 92 50 92 C 72.410156 92 90.792969 74.351563 91.941406 52.207031 C 92.011719 51.128906 91.644531 50.066406 90.921875 49.265625 C 90.195313 48.460938 89.179688 47.984375 88.097656 47.945313 Z "/>
</g>
</svg>
