<?xml version="1.0" encoding="UTF-8"?>
<svg xmlns="http://www.w3.org/2000/svg" xmlns:xlink="http://www.w3.org/1999/xlink" width="100pt" height="100pt" viewBox="0 0 100 100" version="1.1">
<g id="surface1">
<path style=" stroke:none;fill-rule:nonzero;fill:#1E90FF;fill-opacity:1;" d="M 50 10 C 28.703125 10 11.265625 26.757813 10.109375 47.78125 C 10.015625 49.21875 10.695313 50.59375 11.898438 51.390625 C 13.101563 52.179688 14.640625 52.265625 15.921875 51.609375 C 17.203125 50.953125 18.039063 49.65625 18.09375 48.21875 C 19.023438 31.351563 32.882813 18 50 18 C 59.171875 18 67.398438 21.851563 73.21875 28 L 68 28 C 66.554688 27.976563 65.21875 28.734375 64.492188 29.984375 C 63.757813 31.226563 63.757813 32.773438 64.492188 34.015625 C 65.21875 35.265625 66.554688 36.023438 68 36 L 80.523438 36 C 80.976563 36.078125 81.4375 36.078125 81.898438 36 L 88 36 L 88 16 C 88.015625 14.921875 87.59375 13.882813 86.828125 13.117188 C 86.0625 12.351563 85.023438 11.929688 83.9375 11.945313 C 81.734375 11.976563 79.96875 13.789063 80 16 L 80 23.554688 C 72.664063 15.242188 61.929688 10 50 10 Z M 86.0625 47.945313 C 83.851563 47.851563 81.992188 49.570313 81.90625 51.78125 C 80.976563 68.648438 67.117188 82 50 82 C 40.828125 82 32.609375 78.148438 26.78125 72 L 32 72 C 33.445313 72.023438 34.78125 71.265625 35.507813 70.015625 C 36.242188 68.773438 36.242188 67.226563 35.507813 65.984375 C 34.78125 64.734375 33.445313 63.976563 32 64 L 19.4375 64 C 19.015625 63.9375 18.59375 63.9375 18.171875 64 L 12 64 L 12 84 C 11.976563 85.445313 12.734375 86.78125 13.984375 87.507813 C 15.226563 88.242188 16.773438 88.242188 18.015625 87.507813 C 19.265625 86.78125 20.023438 85.445313 20 84 L 20 76.445313 C 27.335938 84.757813 38.070313 90 50 90 C 71.296875 90 88.734375 73.242188 89.890625 52.21875 C 89.96875 51.140625 89.601563 50.078125 88.882813 49.273438 C 88.15625 48.46875 87.140625 47.992188 86.0625 47.945313 Z "/>
</g>
</svg>
