<?xml version="1.0" encoding="UTF-8"?>
<svg xmlns="http://www.w3.org/2000/svg" xmlns:xlink="http://www.w3.org/1999/xlink" width="100pt" height="100pt" viewBox="0 0 100 100" version="1.1">
<g id="surface1">
<path style=" stroke:none;fill-rule:nonzero;fill:#1E90FF;fill-opacity:1;" d="M 12 14 C 10.953125 14 9.882813 14.367188 9.125 15.125 C 8.367188 15.882813 8 16.953125 8 18 L 8 30 C 8 31.046875 8.367188 32.117188 9.125 32.875 C 9.882813 33.632813 10.953125 34 12 34 L 28 34 C 29.046875 34 30.117188 33.632813 30.875 32.875 C 31.632813 32.117188 32 31.046875 32 30 L 32 18 C 32 16.953125 31.632813 15.882813 30.875 15.125 C 30.117188 14.367188 29.046875 14 28 14 Z M 42 14 C 40.953125 14 39.882813 14.367188 39.125 15.125 C 38.367188 15.882813 38 16.953125 38 18 L 38 30 C 38 31.046875 38.367188 32.117188 39.125 32.875 C 39.882813 33.632813 40.953125 34 42 34 L 58 34 C 59.046875 34 60.117188 33.632813 60.875 32.875 C 61.632813 32.117188 62 31.046875 62 30 L 62 18 C 62 16.953125 61.632813 15.882813 60.875 15.125 C 60.117188 14.367188 59.046875 14 58 14 Z M 72 14 C 70.953125 14 69.882813 14.367188 69.125 15.125 C 68.367188 15.882813 68 16.953125 68 18 L 68 30 C 68 31.046875 68.367188 32.117188 69.125 32.875 C 69.882813 33.632813 70.953125 34 72 34 L 88 34 C 89.046875 34 90.117188 33.632813 90.875 32.875 C 91.632813 32.117188 92 31.046875 92 30 L 92 18 C 92 16.953125 91.632813 15.882813 90.875 15.125 C 90.117188 14.367188 89.046875 14 88 14 Z M 12 18 L 28 18 L 28 30 L 12 30 Z M 42 18 L 58 18 L 58 30 L 42 30 Z M 72 18 L 88 18 L 88 30 L 72 30 Z M 12 40 C 10.953125 40 9.882813 40.367188 9.125 41.125 C 8.367188 41.882813 8 42.953125 8 44 L 8 56 C 8 57.046875 8.367188 58.117188 9.125 58.875 C 9.882813 59.632813 10.953125 60 12 60 L 28 60 C 29.046875 60 30.117188 59.632813 30.875 58.875 C 31.632813 58.117188 32 57.046875 32 56 L 32 44 C 32 42.953125 31.632813 41.882813 30.875 41.125 C 30.117188 40.367188 29.046875 40 28 40 Z M 42 40 C 40.953125 40 39.882813 40.367188 39.125 41.125 C 38.367188 41.882813 38 42.953125 38 44 L 38 56 C 38 57.046875 38.367188 58.117188 39.125 58.875 C 39.882813 59.632813 40.953125 60 42 60 L 58 60 C 59.046875 60 60.117188 59.632813 60.875 58.875 C 61.632813 58.117188 62 57.046875 62 56 L 62 44 C 62 42.953125 61.632813 41.882813 60.875 41.125 C 60.117188 40.367188 59.046875 40 58 40 Z M 72 40 C 70.953125 40 69.882813 40.367188 69.125 41.125 C 68.367188 41.882813 68 42.953125 68 44 L 68 56 C 68 57.046875 68.367188 58.117188 69.125 58.875 C 69.882813 59.632813 70.953125 60 72 60 L 88 60 C 89.046875 60 90.117188 59.632813 90.875 58.875 C 91.632813 58.117188 92 57.046875 92 56 L 92 44 C 92 42.953125 91.632813 41.882813 90.875 41.125 C 90.117188 40.367188 89.046875 40 88 40 Z M 12 44 L 28 44 L 28 56 L 12 56 Z M 42 44 L 58 44 L 58 56 L 42 56 Z M 72 44 L 88 44 L 88 56 L 72 56 Z M 12 66 C 10.953125 66 9.882813 66.367188 9.125 67.125 C 8.367188 67.882813 8 68.953125 8 70 L 8 82 C 8 83.046875 8.367188 84.117188 9.125 84.875 C 9.882813 85.632813 10.953125 86 12 86 L 28 86 C 29.046875 86 30.117188 85.632813 30.875 84.875 C 31.632813 84.117188 32 83.046875 32 82 L 32 70 C 32 68.953125 31.632813 67.882813 30.875 67.125 C 30.117188 66.367188 29.046875 66 28 66 Z M 42 66 C 40.953125 66 39.882813 66.367188 39.125 67.125 C 38.367188 67.882813 38 68.953125 38 70 L 38 82 C 38 83.046875 38.367188 84.117188 39.125 84.875 C 39.882813 85.632813 40.953125 86 42 86 L 58 86 C 59.046875 86 60.117188 85.632813 60.875 84.875 C 61.632813 84.117188 62 83.046875 62 82 L 62 70 C 62 68.953125 61.632813 67.882813 60.875 67.125 C 60.117188 66.367188 59.046875 66 58 66 Z M 72 66 C 70.953125 66 69.882813 66.367188 69.125 67.125 C 68.367188 67.882813 68 68.953125 68 70 L 68 82 C 68 83.046875 68.367188 84.117188 69.125 84.875 C 69.882813 85.632813 70.953125 86 72 86 L 88 86 C 89.046875 86 90.117188 85.632813 90.875 84.875 C 91.632813 84.117188 92 83.046875 92 82 L 92 70 C 92 68.953125 91.632813 67.882813 90.875 67.125 C 90.117188 66.367188 89.046875 66 88 66 Z M 12 70 L 28 70 L 28 82 L 12 82 Z M 42 70 L 58 70 L 58 82 L 42 82 Z M 72 70 L 88 70 L 88 82 L 72 82 Z "/>
</g>
</svg>
