<?xml version="1.0" encoding="UTF-8"?>
<svg xmlns="http://www.w3.org/2000/svg" xmlns:xlink="http://www.w3.org/1999/xlink" width="100pt" height="100pt" viewBox="0 0 100 100" version="1.1">
<g id="surface1">
<path style=" stroke:none;fill-rule:nonzero;fill:#1E90FF;fill-opacity:1;" d="M 28 0 C 22.476563 0 18 4.476563 18 10 C 18 15.523438 22.476563 20 28 20 C 33.523438 20 38 15.523438 38 10 C 38 4.476563 33.523438 0 28 0 Z M 86 0 C 80.476563 0 76 4.476563 76 10 C 76 15.523438 80.476563 20 86 20 C 91.523438 20 96 15.523438 96 10 C 96 4.476563 91.523438 0 86 0 Z M 56 16 C 54.890625 16 54 16.898438 54 18 L 54 26 C 54 27.101563 54.890625 28 56 28 L 56.5625 28 C 55.859375 28.132813 55.210938 28.476563 54.6875 29 L 46.875 36.8125 L 40.5 28.375 C 38.5 25.578125 35.085938 24 31.6875 24 L 22.875 24 C 18.875 24 15.25 26.226563 13.25 29.625 L 0.5 51.625 C -0.5 53.421875 0.078125 55.625 1.875 56.625 C 2.476563 57.023438 3.085938 57 3.6875 57 C 4.890625 57 6.273438 56.382813 6.875 55.1875 L 15.0625 40.625 L 11.4375 58 L 0 58 L 0 62 L 72 62 L 72 58 L 42.6875 58 L 38.25 37.625 L 43.5 44.625 C 44.101563 45.421875 45.0625 46 46.0625 46 L 46.25 46 C 47.25 46 48.273438 45.601563 48.875 45 L 59.6875 34.1875 C 61.289063 32.789063 61.273438 30.398438 59.875 29 C 59.351563 28.476563 58.703125 28.132813 58 28 L 60 28 C 61.109375 28 62 27.101563 62 26 L 62 18 C 62 16.898438 61.109375 16 60 16 Z M 53.375 58 C 54.328125 58 55.296875 57.640625 56 56.9375 L 76 36.125 L 76 96 C 76 98.203125 77.796875 100 80 100 L 90 100 C 92.203125 100 94 98.203125 94 96 L 94 66 L 96 66 C 98.203125 66 100 64.203125 100 62 L 100 34.875 C 100 28.875 95 24 89 24 L 82 24 C 78.796875 24 75.828125 25.101563 73.625 27.5 L 51 51.75 C 49.398438 53.148438 49.414063 55.539063 50.8125 56.9375 C 51.507813 57.640625 52.421875 58 53.375 58 Z "/>
</g>
</svg>
