<?xml version="1.0" encoding="UTF-8"?>
<svg xmlns="http://www.w3.org/2000/svg" xmlns:xlink="http://www.w3.org/1999/xlink" width="100pt" height="100pt" viewBox="0 0 100 100" version="1.1">
<g id="surface1">
<path style=" stroke:none;fill-rule:nonzero;fill:#1E90FF;fill-opacity:1;" d="M 12 6 C 7.578125 6 4 9.578125 4 14 C 4 18.421875 7.578125 22 12 22 C 16.421875 22 20 18.421875 20 14 C 20 9.578125 16.421875 6 12 6 Z M 24 12 C 22.898438 12 22 12.898438 22 14 C 22 15.101563 22.898438 16 24 16 C 25.101563 16 26 15.101563 26 14 C 26 12.898438 25.101563 12 24 12 Z M 32 12 C 30.898438 12 30 12.898438 30 14 C 30 15.101563 30.898438 16 32 16 C 33.101563 16 34 15.101563 34 14 C 34 12.898438 33.101563 12 32 12 Z M 40 12 C 38.898438 12 38 12.898438 38 14 C 38 15.101563 38.898438 16 40 16 C 41.101563 16 42 15.101563 42 14 C 42 12.898438 41.101563 12 40 12 Z M 48 12 C 46.898438 12 46 12.898438 46 14 C 46 15.101563 46.898438 16 48 16 C 49.101563 16 50 15.101563 50 14 C 50 12.898438 49.101563 12 48 12 Z M 56 12 C 54.898438 12 54 12.898438 54 14 C 54 15.101563 54.898438 16 56 16 C 57.101563 16 58 15.101563 58 14 C 58 12.898438 57.101563 12 56 12 Z M 64 12 C 62.898438 12 62 12.898438 62 14 C 62 15.101563 62.898438 16 64 16 C 65.101563 16 66 15.101563 66 14 C 66 12.898438 65.101563 12 64 12 Z M 72 12 C 70.898438 12 70 12.898438 70 14 C 70 15.101563 70.898438 16 72 16 C 73.101563 16 74 15.101563 74 14 C 74 12.898438 73.101563 12 72 12 Z M 80 12 C 78.898438 12 78 12.898438 78 14 C 78 15.101563 78.898438 16 80 16 C 81.101563 16 82 15.101563 82 14 C 82 12.898438 81.101563 12 80 12 Z M 88 12 C 86.898438 12 86 12.898438 86 14 C 86 15.101563 86.898438 16 88 16 C 89.101563 16 90 15.101563 90 14 C 90 12.898438 89.101563 12 88 12 Z M 88 20 C 86.898438 20 86 20.898438 86 22 C 86 23.101563 86.898438 24 88 24 C 89.101563 24 90 23.101563 90 22 C 90 20.898438 89.101563 20 88 20 Z M 48 28 C 41.382813 28 36 33.382813 36 40 C 36 45.914063 45.234375 61.304688 46.289063 63.039063 C 46.65625 63.632813 47.296875 64 48 64 C 48.703125 64 49.34375 63.632813 49.710938 63.039063 C 50.765625 61.304688 60 45.914063 60 40 C 60 33.382813 54.617188 28 48 28 Z M 88 28 C 86.898438 28 86 28.898438 86 30 C 86 31.101563 86.898438 32 88 32 C 89.101563 32 90 31.101563 90 30 C 90 28.898438 89.101563 28 88 28 Z M 88 34 C 83.578125 34 80 37.578125 80 42 C 80 46.421875 83.578125 50 88 50 C 92.421875 50 96 46.421875 96 42 C 96 37.578125 92.421875 34 88 34 Z M 48 36 C 50.210938 36 52 37.789063 52 40 C 52 42.210938 50.210938 44 48 44 C 45.789063 44 44 42.210938 44 40 C 44 37.789063 45.789063 36 48 36 Z M 88 52 C 86.898438 52 86 52.898438 86 54 C 86 55.101563 86.898438 56 88 56 C 89.101563 56 90 55.101563 90 54 C 90 52.898438 89.101563 52 88 52 Z M 8 60 C 6.898438 60 6 60.898438 6 62 C 6 63.101563 6.898438 64 8 64 C 9.101563 64 10 63.101563 10 62 C 10 60.898438 9.101563 60 8 60 Z M 16 60 C 14.898438 60 14 60.898438 14 62 C 14 63.101563 14.898438 64 16 64 C 17.101563 64 18 63.101563 18 62 C 18 60.898438 17.101563 60 16 60 Z M 24 60 C 22.898438 60 22 60.898438 22 62 C 22 63.101563 22.898438 64 24 64 C 25.101563 64 26 63.101563 26 62 C 26 60.898438 25.101563 60 24 60 Z M 32 60 C 30.898438 60 30 60.898438 30 62 C 30 63.101563 30.898438 64 32 64 C 33.101563 64 34 63.101563 34 62 C 34 60.898438 33.101563 60 32 60 Z M 40 60 C 38.898438 60 38 60.898438 38 62 C 38 63.101563 38.898438 64 40 64 C 41.101563 64 42 63.101563 42 62 C 42 60.898438 41.101563 60 40 60 Z M 56 60 C 54.898438 60 54 60.898438 54 62 C 54 63.101563 54.898438 64 56 64 C 57.101563 64 58 63.101563 58 62 C 58 60.898438 57.101563 60 56 60 Z M 64 60 C 62.898438 60 62 60.898438 62 62 C 62 63.101563 62.898438 64 64 64 C 65.101563 64 66 63.101563 66 62 C 66 60.898438 65.101563 60 64 60 Z M 72 60 C 70.898438 60 70 60.898438 70 62 C 70 63.101563 70.898438 64 72 64 C 73.101563 64 74 63.101563 74 62 C 74 60.898438 73.101563 60 72 60 Z M 80 60 C 78.898438 60 78 60.898438 78 62 C 78 63.101563 78.898438 64 80 64 C 81.101563 64 82 63.101563 82 62 C 82 60.898438 81.101563 60 80 60 Z M 88 60 C 86.898438 60 86 60.898438 86 62 C 86 63.101563 86.898438 64 88 64 C 89.101563 64 90 63.101563 90 62 C 90 60.898438 89.101563 60 88 60 Z M 8 68 C 6.898438 68 6 68.898438 6 70 C 6 71.101563 6.898438 72 8 72 C 9.101563 72 10 71.101563 10 70 C 10 68.898438 9.101563 68 8 68 Z M 8 76 C 6.898438 76 6 76.898438 6 78 C 6 79.101563 6.898438 80 8 80 C 9.101563 80 10 79.101563 10 78 C 10 76.898438 9.101563 76 8 76 Z M 86 78 C 81.578125 78 78 81.578125 78 86 C 78 90.421875 81.578125 94 86 94 C 90.421875 94 94 90.421875 94 86 C 94 81.578125 90.421875 78 86 78 Z M 8 84 C 6.898438 84 6 84.898438 6 86 C 6 87.101563 6.898438 88 8 88 C 9.101563 88 10 87.101563 10 86 C 10 84.898438 9.101563 84 8 84 Z M 16 84 C 14.898438 84 14 84.898438 14 86 C 14 87.101563 14.898438 88 16 88 C 17.101563 88 18 87.101563 18 86 C 18 84.898438 17.101563 84 16 84 Z M 24 84 C 22.898438 84 22 84.898438 22 86 C 22 87.101563 22.898438 88 24 88 C 25.101563 88 26 87.101563 26 86 C 26 84.898438 25.101563 84 24 84 Z M 32 84 C 30.898438 84 30 84.898438 30 86 C 30 87.101563 30.898438 88 32 88 C 33.101563 88 34 87.101563 34 86 C 34 84.898438 33.101563 84 32 84 Z M 40 84 C 38.898438 84 38 84.898438 38 86 C 38 87.101563 38.898438 88 40 88 C 41.101563 88 42 87.101563 42 86 C 42 84.898438 41.101563 84 40 84 Z M 48 84 C 46.898438 84 46 84.898438 46 86 C 46 87.101563 46.898438 88 48 88 C 49.101563 88 50 87.101563 50 86 C 50 84.898438 49.101563 84 48 84 Z M 56 84 C 54.898438 84 54 84.898438 54 86 C 54 87.101563 54.898438 88 56 88 C 57.101563 88 58 87.101563 58 86 C 58 84.898438 57.101563 84 56 84 Z M 64 84 C 62.898438 84 62 84.898438 62 86 C 62 87.101563 62.898438 88 64 88 C 65.101563 88 66 87.101563 66 86 C 66 84.898438 65.101563 84 64 84 Z M 72 84 C 70.898438 84 70 84.898438 70 86 C 70 87.101563 70.898438 88 72 88 C 73.101563 88 74 87.101563 74 86 C 74 84.898438 73.101563 84 72 84 Z "/>
</g>
</svg>
