<?xml version="1.0" encoding="UTF-8"?>
<svg xmlns="http://www.w3.org/2000/svg" xmlns:xlink="http://www.w3.org/1999/xlink" width="100pt" height="100pt" viewBox="0 0 100 100" version="1.1">
<g id="surface1">
<path style=" stroke:none;fill-rule:nonzero;fill:#1E90FF;fill-opacity:1;" d="M 34 0 L 34 14 L 66 14 L 66 0 Z M 13 4 C 10.289063 4 8 6.289063 8 9 L 8 95 C 8 97.710938 10.289063 100 13 100 L 87 100 C 89.710938 100 92 97.710938 92 95 L 92 9 C 92 6.289063 89.710938 4 87 4 L 70 4 L 70 8 L 87 8 C 87.492188 8 88 8.507813 88 9 L 88 95 C 88 95.492188 87.492188 96 87 96 L 13 96 C 12.507813 96 12 95.492188 12 95 L 12 9 C 12 8.507813 12.507813 8 13 8 L 30 8 L 30 4 Z M 18 12 L 18 90 L 82 90 L 82 12 L 70 12 L 70 18 L 30 18 L 30 12 Z M 52 26 L 70 26 L 70 30 L 52 30 Z M 36 30 L 40 30 L 40 36 L 46 36 L 46 40 L 40 40 L 40 46 L 36 46 L 36 40 L 30 40 L 30 36 L 36 36 Z M 52 36 L 70 36 L 70 40 L 52 40 Z M 52 46 L 70 46 L 70 50 L 52 50 Z M 30 56 L 70 56 L 70 60 L 30 60 Z M 30 66 L 70 66 L 70 70 L 30 70 Z M 30 76 L 70 76 L 70 80 L 30 80 Z "/>
</g>
</svg>
