<?xml version="1.0" encoding="UTF-8"?>
<svg xmlns="http://www.w3.org/2000/svg" xmlns:xlink="http://www.w3.org/1999/xlink" width="100pt" height="100pt" viewBox="0 0 100 100" version="1.1">
<g id="surface1">
<path style=" stroke:none;fill-rule:nonzero;fill:#1E90FF;fill-opacity:1;" d="M 34 4 C 28.476563 4 24 8.476563 24 14 C 24 19.523438 28.476563 24 34 24 C 39.523438 24 44 19.523438 44 14 C 44 8.476563 39.523438 4 34 4 Z M 65.625 4 C 60.101563 4 55.625 8.476563 55.625 14 C 55.625 19.523438 60.101563 24 65.625 24 C 71.148438 24 75.625 19.523438 75.625 14 C 75.625 8.476563 71.148438 4 65.625 4 Z M 34 26 C 31.773438 26 29.710938 26.515625 27.875 27.4375 C 31.625 30.367188 34.0625 34.945313 34.0625 40.0625 C 34.0625 45.070313 31.742188 49.5625 28.125 52.5 C 31.039063 54.015625 33.585938 56.117188 35.5625 58.75 C 34.609375 56.703125 34.0625 54.460938 34.0625 52.0625 C 34.0625 44.117188 39.898438 37.484375 47.5 36.25 C 45.890625 30.296875 40.507813 26 34 26 Z M 65.625 26 C 59.148438 26 53.757813 30.265625 52.125 36.1875 C 59.960938 37.21875 66.0625 43.945313 66.0625 52.0625 C 66.0625 54.304688 65.585938 56.4375 64.75 58.375 C 66.703125 55.90625 69.148438 53.875 71.9375 52.4375 C 68.34375 49.5 66.0625 45.054688 66.0625 40.0625 C 66.0625 35.039063 68.367188 30.5625 72 27.625 C 70.085938 26.601563 67.96875 26 65.625 26 Z M 18.0625 28.0625 C 11.4375 28.0625 6.0625 33.4375 6.0625 40.0625 C 6.0625 46.6875 11.4375 52.0625 18.0625 52.0625 C 24.6875 52.0625 30.0625 46.6875 30.0625 40.0625 C 30.0625 33.4375 24.6875 28.0625 18.0625 28.0625 Z M 82.0625 28.0625 C 75.4375 28.0625 70.0625 33.4375 70.0625 40.0625 C 70.0625 46.6875 75.4375 52.0625 82.0625 52.0625 C 88.6875 52.0625 94.0625 46.6875 94.0625 40.0625 C 94.0625 33.4375 88.6875 28.0625 82.0625 28.0625 Z M 50.0625 40.0625 C 43.4375 40.0625 38.0625 45.4375 38.0625 52.0625 C 38.0625 58.6875 43.4375 64.0625 50.0625 64.0625 C 56.6875 64.0625 62.0625 58.6875 62.0625 52.0625 C 62.0625 45.4375 56.6875 40.0625 50.0625 40.0625 Z M 18 54 C 8.078125 54 0 62.070313 0 72 L 0 79 C 0 79.625 0.304688 80.25 0.8125 80.625 C 1.273438 80.976563 5.6875 84 18 84 C 22.265625 84 25.585938 83.617188 28.125 83.125 C 28.382813 76.976563 31.132813 71.46875 35.4375 67.625 C 33.484375 59.796875 26.421875 54 18 54 Z M 82 54 C 73.609375 54 66.546875 59.773438 64.5625 67.5625 C 68.929688 71.414063 71.75 76.984375 72 83.1875 C 74.523438 83.671875 77.796875 84 82 84 C 94.3125 84 98.726563 80.976563 99.1875 80.625 C 99.695313 80.25 100 79.632813 100 79 L 100 72 C 100 62.070313 91.929688 54 82 54 Z M 50.0625 66.0625 C 40.140625 66.0625 32.0625 74.132813 32.0625 84.0625 L 32.0625 91.0625 C 32.0625 91.695313 32.367188 92.25 32.875 92.625 C 33.335938 92.976563 37.75 96.0625 50.0625 96.0625 C 62.375 96.0625 66.789063 92.976563 67.25 92.625 C 67.757813 92.25 68.0625 91.6875 68.0625 91.0625 L 68.0625 84.0625 C 68.0625 74.132813 59.992188 66.0625 50.0625 66.0625 Z "/>
</g>
</svg>
