<?xml version="1.0" encoding="UTF-8"?>
<svg xmlns="http://www.w3.org/2000/svg" xmlns:xlink="http://www.w3.org/1999/xlink" width="100pt" height="100pt" viewBox="0 0 100 100" version="1.1">
<g id="surface1">
<path style=" stroke:none;fill-rule:nonzero;fill:#1E90FF;fill-opacity:1;" d="M 69.4375 6.0625 C 67.953125 6.0625 66.203125 6.367188 63.8125 7 C 57.796875 8.585938 22.523438 18.34375 22 18.5 C 16.765625 20.46875 13.453125 22.40625 11.375 24.6875 C 13.8125 23.039063 16.71875 22 20 22 L 76 22 L 76 15.3125 C 76 12.078125 75.976563 6.0625 69.4375 6.0625 Z M 20 26 C 12.5625 26 8 32.992188 8 38 L 8 80.75 C 8 86.945313 13.054688 92 19.25 92 L 80.75 92 C 86.945313 92 92 86.945313 92 80.75 L 92 37.6875 C 92 31.570313 86.28125 26 80 26 Z M 77 54 C 79.757813 54 82 56.234375 82 59 C 82 61.765625 79.757813 64 77 64 C 74.234375 64 72 61.765625 72 59 C 72 56.234375 74.234375 54 77 54 Z "/>
</g>
</svg>
